<svg xmlns="http://www.w3.org/2000/svg" viewBox="0 -0.5 64 64" shape-rendering="crispEdges">
<metadata>Made with Pixels to Svg https://codepen.io/shshaw/pen/XbxvNj</metadata>
<path stroke="#000000" d="M16 10h10M16 11h10M16 12h2M26 12h6M16 13h2M26 13h6M16 14h2M32 14h2M16 15h2M32 15h2M16 16h4M34 16h4M16 17h4M34 17h4M18 18h2M38 18h2M18 19h2M38 19h2M20 20h2M40 20h2M20 21h2M40 21h2M20 22h4M42 22h4M20 23h4M42 23h4M22 24h4M46 24h2M22 25h4M46 25h2M24 26h4M46 26h2M24 27h4M46 27h2M26 28h2M46 28h2M26 29h2M46 29h2M28 30h2M46 30h2M28 31h2M46 31h2M28 32h2M46 32h2M28 33h2M46 33h2M26 34h2M46 34h2M26 35h2M46 35h2M24 36h4M46 36h2M24 37h4M46 37h2M22 38h4M46 38h2M22 39h4M46 39h2M20 40h4M42 40h4M20 41h4M42 41h4M20 42h2M40 42h2M20 43h2M40 43h2M18 44h2M38 44h2M18 45h2M38 45h2M16 46h4M34 46h4M16 47h4M34 47h4M16 48h2M32 48h2M16 49h2M32 49h2M16 50h2M26 50h6M16 51h2M26 51h6M16 52h10M16 53h10" />
<path stroke="#f16e6e" d="M18 12h8M18 13h8M18 14h8M18 15h8M20 16h2M24 16h4M20 17h2M24 17h4M20 18h4M26 18h6M20 19h4M26 19h6M22 20h4M30 20h4M22 21h4M30 21h4M26 22h2M32 22h4M26 23h2M32 23h4M28 24h2M36 24h2M28 25h2M36 25h2M28 26h4M36 26h4M28 27h4M36 27h4M28 28h6M38 28h4M28 29h6M38 29h4M30 30h6M40 30h2M30 31h6M40 31h2M32 32h6M40 32h4M32 33h6M40 33h4M34 34h4M42 34h2M34 35h4M42 35h2M36 36h10M36 37h10" />
<path stroke="#eb8b8b" d="M26 14h6M26 15h6M22 16h2M28 16h6M22 17h2M28 17h6M24 18h2M32 18h6M24 19h2M32 19h6M26 20h4M34 20h6M26 21h4M34 21h6M28 22h4M36 22h6M28 23h4M36 23h6M30 24h6M38 24h8M30 25h6M38 25h8M32 26h4M40 26h6M32 27h4M40 27h6M34 28h4M42 28h4M34 29h4M42 29h4M36 30h4M42 30h4M36 31h4M42 31h4M38 32h2M44 32h2M38 33h2M44 33h2M38 34h4M44 34h2M38 35h4M44 35h2" />
<path stroke="#ef6262" d="M24 22h2M24 23h2M26 24h2M26 25h2M30 32h2M30 33h2M28 34h6M28 35h6M28 36h8M28 37h8M26 38h20M26 39h20M24 40h18M24 41h18M22 42h18M22 43h18M20 44h18M20 45h18M20 46h14M20 47h14M18 48h14M18 49h14M18 50h8M18 51h8" />
</svg>