<svg width="611" height="228" viewBox="0 0 611 228" fill="none" xmlns="http://www.w3.org/2000/svg">
<rect x="10.5" y="13.5" width="587" height="201" stroke="black" stroke-width="5"/>
<path d="M81.4444 98.5556H77V71.8889H85.8889V98.5556H94.7778V71.8889H103.667V98.5556H99.2222V103H81.4444V98.5556ZM121.427 71.8889V76.3333H125.872V85.2222H130.316V71.8889H139.205V103H130.316V98.5556H125.872V94.1111H121.427V85.2222H116.983V103H108.094V71.8889H121.427ZM161.418 71.8889V76.3333H165.863V80.7778H170.307V94.1111H165.863V98.5556H161.418V103H143.641V71.8889H161.418ZM156.974 76.3333H152.53V98.5556H156.974V94.1111H161.418V80.7778H156.974V76.3333ZM174.734 103V71.8889H201.401V76.3333H183.623V85.2222H196.957V89.6667H183.623V98.5556H201.401V103H174.734ZM228.05 76.3333H232.495V85.2222H228.05V89.6667H223.606V94.1111H228.05V98.5556H232.495V103H223.606V98.5556H219.161V94.1111H214.717V103H205.828V71.8889H228.05V76.3333ZM223.606 85.2222V76.3333H214.717V85.2222H223.606ZM263.584 103V76.3333H254.695V71.8889H281.362V76.3333H272.473V103H263.584ZM303.567 103V89.6667H294.678V103H285.789V71.8889H294.678V85.2222H303.567V71.8889H312.456V103H303.567ZM316.883 103V71.8889H343.549V76.3333H325.772V85.2222H339.105V89.6667H325.772V98.5556H343.549V103H316.883ZM370.194 94.1111H365.75V71.8889H374.639V85.2222H379.083V76.3333H387.972V85.2222H392.417V71.8889H401.306V94.1111H396.861V103H387.972V94.1111H379.083V103H370.194V94.1111ZM414.639 76.3333V71.8889H423.528V76.3333H427.972V85.2222H432.417V103H423.528V94.1111H414.639V103H405.75V85.2222H410.194V76.3333H414.639ZM414.639 89.6667H423.528V80.7778H414.639V89.6667ZM445.733 103V94.1111H441.288V85.2222H436.844V71.8889H445.733V85.2222H454.622V71.8889H463.51V85.2222H459.066V94.1111H454.622V103H445.733ZM467.938 103V71.8889H494.604V76.3333H476.826V85.2222H490.16V89.6667H476.826V98.5556H494.604V103H467.938ZM503.476 98.5556H499.031V94.1111H507.92V98.5556H516.809V89.6667H503.476V85.2222H499.031V76.3333H503.476V71.8889H521.253V76.3333H525.698V80.7778H516.809V76.3333H507.92V85.2222H521.253V89.6667H525.698V98.5556H521.253V103H503.476V98.5556Z" fill="black"/>
<rect y="21" width="11" height="187" fill="black"/>
<rect x="587" width="11" height="567" transform="rotate(90 587 0)" fill="black"/>
<rect x="587" y="217" width="11" height="567" transform="rotate(90 587 217)" fill="black"/>
<rect x="600" y="21" width="11" height="187" fill="black"/>
<path d="M198.556 148.444H195V144.889H198.556V148.444ZM209.222 152H198.556V148.444H209.222V152ZM212.778 148.444H209.222V141.333H212.778V148.444ZM209.222 130.667H198.556V127.111H209.222V130.667ZM212.778 134.222H209.222V130.667H212.778V134.222ZM198.556 137.778H195V130.667H198.556V137.778ZM209.222 141.333H198.556V137.778H209.222V141.333ZM223.455 130.667H216.344V127.111H234.122V130.667H227.01V152H223.455V130.667ZM241.243 137.778H237.688V127.111H241.243V137.778ZM248.354 141.333V152H244.799V141.333H241.243V137.778H251.91V141.333H248.354ZM255.465 137.778H251.91V127.111H255.465V137.778ZM259.031 152V127.111H262.587V148.444H276.809V152H259.031ZM283.931 148.444H298.153V152H280.375V127.111H298.153V130.667H283.931V137.778H294.597V141.333H283.931V148.444ZM315.931 148.444H312.375V130.667H315.931V148.444ZM326.597 148.444V141.333H319.486V137.778H330.153V152H315.931V148.444H326.597ZM326.597 130.667H315.931V127.111H326.597V130.667ZM337.274 148.444H333.719V127.111H337.274V148.444ZM347.941 152H337.274V148.444H347.941V152ZM351.497 148.444H347.941V127.111H351.497V148.444ZM365.729 127.111V130.667H362.174V148.444H365.729V152H355.062V148.444H358.618V130.667H355.062V127.111H365.729ZM379.948 127.111V130.667H372.837V148.444H379.948V152H369.281V127.111H379.948ZM387.059 144.889H383.503V134.222H387.059V144.889ZM383.503 134.222H379.948V130.667H383.503V134.222ZM383.503 148.444H379.948V144.889H383.503V148.444ZM394.181 148.444H408.403V152H390.625V127.111H408.403V130.667H394.181V137.778H404.847V141.333H394.181V148.444Z" fill="black"/>
<line x1="156" y1="142.5" x2="94" y2="142.5" stroke="black" stroke-width="5"/>
<line x1="513" y1="142.5" x2="451" y2="142.5" stroke="black" stroke-width="5"/>
</svg>
