<svg xmlns="http://www.w3.org/2000/svg" viewBox="0 -0.5 1024 976" shape-rendering="crispEdges">
<metadata>Made with Pixels to Svg https://codepen.io/shshaw/pen/XbxvNj</metadata>
<path stroke="#f8cbc5" d="M400 112h160M400 113h160M400 114h160M400 115h160M400 116h160M400 117h160M400 118h160M400 119h160M400 120h160M400 121h160M400 122h160M400 123h160M400 124h160M400 125h160M400 126h160M400 127h160M352 128h256M352 129h256M352 130h256M352 131h256M352 132h256M352 133h256M352 134h256M352 135h256M352 136h256M352 137h256M352 138h256M352 139h256M352 140h256M352 141h256M352 142h256M352 143h256M320 144h304M320 145h304M320 146h304M320 147h304M320 148h304M320 149h304M320 150h304M320 151h304M320 152h304M320 153h304M320 154h304M320 155h304M320 156h304M320 157h304M320 158h304M320 159h304M288 160h368M288 161h368M288 162h368M288 163h368M288 164h368M288 165h368M288 166h368M288 167h368M288 168h368M288 169h368M288 170h368M288 171h368M288 172h368M288 173h368M288 174h368M288 175h368M272 176h400M272 177h400M272 178h400M272 179h400M272 180h400M272 181h400M272 182h400M272 183h400M272 184h400M272 185h400M272 186h400M272 187h400M272 188h400M272 189h400M272 190h400M272 191h400M272 192h416M272 193h416M272 194h416M272 195h416M272 196h416M272 197h416M272 198h416M272 199h416M272 200h416M272 201h416M272 202h416M272 203h416M272 204h416M272 205h416M272 206h416M272 207h416M256 208h432M256 209h432M256 210h432M256 211h432M256 212h432M256 213h432M256 214h432M256 215h432M256 216h432M256 217h432M256 218h432M256 219h432M256 220h432M256 221h432M256 222h432M256 223h432M256 224h432M256 225h432M256 226h432M256 227h432M256 228h432M256 229h432M256 230h432M256 231h432M256 232h432M256 233h432M256 234h432M256 235h432M256 236h432M256 237h432M256 238h432M256 239h432M240 240h448M240 241h448M240 242h448M240 243h448M240 244h448M240 245h448M240 246h448M240 247h448M240 248h448M240 249h448M240 250h448M240 251h448M240 252h448M240 253h448M240 254h448M240 255h448M240 256h112M384 256h224M640 256h48M240 257h112M384 257h224M640 257h48M240 258h112M384 258h224M640 258h48M240 259h112M384 259h224M640 259h48M240 260h112M384 260h224M640 260h48M240 261h112M384 261h224M640 261h48M240 262h112M384 262h224M640 262h48M240 263h112M384 263h224M640 263h48M240 264h112M384 264h224M640 264h48M240 265h112M384 265h224M640 265h48M240 266h112M384 266h224M640 266h48M240 267h112M384 267h224M640 267h48M240 268h112M384 268h224M640 268h48M240 269h112M384 269h224M640 269h48M240 270h112M384 270h224M640 270h48M240 271h112M384 271h224M640 271h48M240 272h96M400 272h192M656 272h48M240 273h96M400 273h192M656 273h48M240 274h96M400 274h192M656 274h48M240 275h96M400 275h192M656 275h48M240 276h96M400 276h192M656 276h48M240 277h96M400 277h192M656 277h48M240 278h96M400 278h192M656 278h48M240 279h96M400 279h192M656 279h48M240 280h96M400 280h192M656 280h48M240 281h96M400 281h192M656 281h48M240 282h96M400 282h192M656 282h48M240 283h96M400 283h192M656 283h48M240 284h96M400 284h192M656 284h48M240 285h96M400 285h192M656 285h48M240 286h96M400 286h192M656 286h48M240 287h96M400 287h192M656 287h48M240 288h96M400 288h192M656 288h48M240 289h96M400 289h192M656 289h48M240 290h96M400 290h192M656 290h48M240 291h96M400 291h192M656 291h48M240 292h96M400 292h192M656 292h48M240 293h96M400 293h192M656 293h48M240 294h96M400 294h192M656 294h48M240 295h96M400 295h192M656 295h48M240 296h96M400 296h192M656 296h48M240 297h96M400 297h192M656 297h48M240 298h96M400 298h192M656 298h48M240 299h96M400 299h192M656 299h48M240 300h96M400 300h192M656 300h48M240 301h96M400 301h192M656 301h48M240 302h96M400 302h192M656 302h48M240 303h96M400 303h192M656 303h48M240 304h112M384 304h80M528 304h80M640 304h64M240 305h112M384 305h80M528 305h80M640 305h64M240 306h112M384 306h80M528 306h80M640 306h64M240 307h112M384 307h80M528 307h80M640 307h64M240 308h112M384 308h80M528 308h80M640 308h64M240 309h112M384 309h80M528 309h80M640 309h64M240 310h112M384 310h80M528 310h80M640 310h64M240 311h112M384 311h80M528 311h80M640 311h64M240 312h112M384 312h80M528 312h80M640 312h64M240 313h112M384 313h80M528 313h80M640 313h64M240 314h112M384 314h80M528 314h80M640 314h64M240 315h112M384 315h80M528 315h80M640 315h64M240 316h112M384 316h80M528 316h80M640 316h64M240 317h112M384 317h80M528 317h80M640 317h64M240 318h112M384 318h80M528 318h80M640 318h64M240 319h112M384 319h80M528 319h80M640 319h64M240 320h208M464 320h64M544 320h160M240 321h208M464 321h64M544 321h160M240 322h208M464 322h64M544 322h160M240 323h208M464 323h64M544 323h160M240 324h208M464 324h64M544 324h160M240 325h208M464 325h64M544 325h160M240 326h208M464 326h64M544 326h160M240 327h208M464 327h64M544 327h160M240 328h208M464 328h64M544 328h160M240 329h208M464 329h64M544 329h160M240 330h208M464 330h64M544 330h160M240 331h208M464 331h64M544 331h160M240 332h208M464 332h64M544 332h160M240 333h208M464 333h64M544 333h160M240 334h208M464 334h64M544 334h160M240 335h208M464 335h64M544 335h160M240 336h80M400 336h48M464 336h16M512 336h16M544 336h48M672 336h32M240 337h80M400 337h48M464 337h16M512 337h16M544 337h48M672 337h32M240 338h80M400 338h48M464 338h16M512 338h16M544 338h48M672 338h32M240 339h80M400 339h48M464 339h16M512 339h16M544 339h48M672 339h32M240 340h80M400 340h48M464 340h16M512 340h16M544 340h48M672 340h32M240 341h80M400 341h48M464 341h16M512 341h16M544 341h48M672 341h32M240 342h80M400 342h48M464 342h16M512 342h16M544 342h48M672 342h32M240 343h80M400 343h48M464 343h16M512 343h16M544 343h48M672 343h32M240 344h80M400 344h48M464 344h16M512 344h16M544 344h48M672 344h32M240 345h80M400 345h48M464 345h16M512 345h16M544 345h48M672 345h32M240 346h80M400 346h48M464 346h16M512 346h16M544 346h48M672 346h32M240 347h80M400 347h48M464 347h16M512 347h16M544 347h48M672 347h32M240 348h80M400 348h48M464 348h16M512 348h16M544 348h48M672 348h32M240 349h80M400 349h48M464 349h16M512 349h16M544 349h48M672 349h32M240 350h80M400 350h48M464 350h16M512 350h16M544 350h48M672 350h32M240 351h80M400 351h48M464 351h16M512 351h16M544 351h48M672 351h32M240 352h80M336 352h48M400 352h48M464 352h16M512 352h16M544 352h48M608 352h48M672 352h32M240 353h80M336 353h48M400 353h48M464 353h16M512 353h16M544 353h48M608 353h48M672 353h32M240 354h80M336 354h48M400 354h48M464 354h16M512 354h16M544 354h48M608 354h48M672 354h32M240 355h80M336 355h48M400 355h48M464 355h16M512 355h16M544 355h48M608 355h48M672 355h32M240 356h80M336 356h48M400 356h48M464 356h16M512 356h16M544 356h48M608 356h48M672 356h32M240 357h80M336 357h48M400 357h48M464 357h16M512 357h16M544 357h48M608 357h48M672 357h32M240 358h80M336 358h48M400 358h48M464 358h16M512 358h16M544 358h48M608 358h48M672 358h32M240 359h80M336 359h48M400 359h48M464 359h16M512 359h16M544 359h48M608 359h48M672 359h32M240 360h80M336 360h48M400 360h48M464 360h16M512 360h16M544 360h48M608 360h48M672 360h32M240 361h80M336 361h48M400 361h48M464 361h16M512 361h16M544 361h48M608 361h48M672 361h32M240 362h80M336 362h48M400 362h48M464 362h16M512 362h16M544 362h48M608 362h48M672 362h32M240 363h80M336 363h48M400 363h48M464 363h16M512 363h16M544 363h48M608 363h48M672 363h32M240 364h80M336 364h48M400 364h48M464 364h16M512 364h16M544 364h48M608 364h48M672 364h32M240 365h80M336 365h48M400 365h48M464 365h16M512 365h16M544 365h48M608 365h48M672 365h32M240 366h80M336 366h48M400 366h48M464 366h16M512 366h16M544 366h48M608 366h48M672 366h32M240 367h80M336 367h48M400 367h48M464 367h16M512 367h16M544 367h48M608 367h48M672 367h32M256 368h64M336 368h16M368 368h16M400 368h48M464 368h64M544 368h48M608 368h16M640 368h16M672 368h16M256 369h64M336 369h16M368 369h16M400 369h48M464 369h64M544 369h48M608 369h16M640 369h16M672 369h16M256 370h64M336 370h16M368 370h16M400 370h48M464 370h64M544 370h48M608 370h16M640 370h16M672 370h16M256 371h64M336 371h16M368 371h16M400 371h48M464 371h64M544 371h48M608 371h16M640 371h16M672 371h16M256 372h64M336 372h16M368 372h16M400 372h48M464 372h64M544 372h48M608 372h16M640 372h16M672 372h16M256 373h64M336 373h16M368 373h16M400 373h48M464 373h64M544 373h48M608 373h16M640 373h16M672 373h16M256 374h64M336 374h16M368 374h16M400 374h48M464 374h64M544 374h48M608 374h16M640 374h16M672 374h16M256 375h64M336 375h16M368 375h16M400 375h48M464 375h64M544 375h48M608 375h16M640 375h16M672 375h16M256 376h64M336 376h16M368 376h16M400 376h48M464 376h64M544 376h48M608 376h16M640 376h16M672 376h16M256 377h64M336 377h16M368 377h16M400 377h48M464 377h64M544 377h48M608 377h16M640 377h16M672 377h16M256 378h64M336 378h16M368 378h16M400 378h48M464 378h64M544 378h48M608 378h16M640 378h16M672 378h16M256 379h64M336 379h16M368 379h16M400 379h48M464 379h64M544 379h48M608 379h16M640 379h16M672 379h16M256 380h64M336 380h16M368 380h16M400 380h48M464 380h64M544 380h48M608 380h16M640 380h16M672 380h16M256 381h64M336 381h16M368 381h16M400 381h48M464 381h64M544 381h48M608 381h16M640 381h16M672 381h16M256 382h64M336 382h16M368 382h16M400 382h48M464 382h64M544 382h48M608 382h16M640 382h16M672 382h16M256 383h64M336 383h16M368 383h16M400 383h48M464 383h64M544 383h48M608 383h16M640 383h16M672 383h16M272 384h48M336 384h16M400 384h64M528 384h64M608 384h16M672 384h16M272 385h48M336 385h16M400 385h64M528 385h64M608 385h16M672 385h16M272 386h48M336 386h16M400 386h64M528 386h64M608 386h16M672 386h16M272 387h48M336 387h16M400 387h64M528 387h64M608 387h16M672 387h16M272 388h48M336 388h16M400 388h64M528 388h64M608 388h16M672 388h16M272 389h48M336 389h16M400 389h64M528 389h64M608 389h16M672 389h16M272 390h48M336 390h16M400 390h64M528 390h64M608 390h16M672 390h16M272 391h48M336 391h16M400 391h64M528 391h64M608 391h16M672 391h16M272 392h48M336 392h16M400 392h64M528 392h64M608 392h16M672 392h16M272 393h48M336 393h16M400 393h64M528 393h64M608 393h16M672 393h16M272 394h48M336 394h16M400 394h64M528 394h64M608 394h16M672 394h16M272 395h48M336 395h16M400 395h64M528 395h64M608 395h16M672 395h16M272 396h48M336 396h16M400 396h64M528 396h64M608 396h16M672 396h16M272 397h48M336 397h16M400 397h64M528 397h64M608 397h16M672 397h16M272 398h48M336 398h16M400 398h64M528 398h64M608 398h16M672 398h16M272 399h48M336 399h16M400 399h64M528 399h64M608 399h16M672 399h16M272 400h416M272 401h416M272 402h416M272 403h416M272 404h416M272 405h416M272 406h416M272 407h416M272 408h416M272 409h416M272 410h416M272 411h416M272 412h416M272 413h416M272 414h416M272 415h416M288 416h400M288 417h400M288 418h400M288 419h400M288 420h400M288 421h400M288 422h400M288 423h400M288 424h400M288 425h400M288 426h400M288 427h400M288 428h400M288 429h400M288 430h400M288 431h400M272 432h400M272 433h400M272 434h400M272 435h400M272 436h400M272 437h400M272 438h400M272 439h400M272 440h400M272 441h400M272 442h400M272 443h400M272 444h400M272 445h400M272 446h400M272 447h400M256 448h400M256 449h400M256 450h400M256 451h400M256 452h400M256 453h400M256 454h400M256 455h400M256 456h400M256 457h400M256 458h400M256 459h400M256 460h400M256 461h400M256 462h400M256 463h400M240 464h240M496 464h144M240 465h240M496 465h144M240 466h240M496 466h144M240 467h240M496 467h144M240 468h240M496 468h144M240 469h240M496 469h144M240 470h240M496 470h144M240 471h240M496 471h144M240 472h240M496 472h144M240 473h240M496 473h144M240 474h240M496 474h144M240 475h240M496 475h144M240 476h240M496 476h144M240 477h240M496 477h144M240 478h240M496 478h144M240 479h240M496 479h144M112 480h64M240 480h80M352 480h96M496 480h128M112 481h64M240 481h80M352 481h96M496 481h128M112 482h64M240 482h80M352 482h96M496 482h128M112 483h64M240 483h80M352 483h96M496 483h128M112 484h64M240 484h80M352 484h96M496 484h128M112 485h64M240 485h80M352 485h96M496 485h128M112 486h64M240 486h80M352 486h96M496 486h128M112 487h64M240 487h80M352 487h96M496 487h128M112 488h64M240 488h80M352 488h96M496 488h128M112 489h64M240 489h80M352 489h96M496 489h128M112 490h64M240 490h80M352 490h96M496 490h128M112 491h64M240 491h80M352 491h96M496 491h128M112 492h64M240 492h80M352 492h96M496 492h128M112 493h64M240 493h80M352 493h96M496 493h128M112 494h64M240 494h80M352 494h96M496 494h128M112 495h64M240 495h80M352 495h96M496 495h128M112 496h64M256 496h32M352 496h48M544 496h64M112 497h64M256 497h32M352 497h48M544 497h64M112 498h64M256 498h32M352 498h48M544 498h64M112 499h64M256 499h32M352 499h48M544 499h64M112 500h64M256 500h32M352 500h48M544 500h64M112 501h64M256 501h32M352 501h48M544 501h64M112 502h64M256 502h32M352 502h48M544 502h64M112 503h64M256 503h32M352 503h48M544 503h64M112 504h64M256 504h32M352 504h48M544 504h64M112 505h64M256 505h32M352 505h48M544 505h64M112 506h64M256 506h32M352 506h48M544 506h64M112 507h64M256 507h32M352 507h48M544 507h64M112 508h64M256 508h32M352 508h48M544 508h64M112 509h64M256 509h32M352 509h48M544 509h64M112 510h64M256 510h32M352 510h48M544 510h64M112 511h64M256 511h32M352 511h48M544 511h64M112 512h64M112 513h64M112 514h64M112 515h64M112 516h64M112 517h64M112 518h64M112 519h64M112 520h64M112 521h64M112 522h64M112 523h64M112 524h64M112 525h64M112 526h64M112 527h64M112 528h64M112 529h64M112 530h64M112 531h64M112 532h64M112 533h64M112 534h64M112 535h64M112 536h64M112 537h64M112 538h64M112 539h64M112 540h64M112 541h64M112 542h64M112 543h64M400 720h64M576 720h64M400 721h64M576 721h64M400 722h64M576 722h64M400 723h64M576 723h64M400 724h64M576 724h64M400 725h64M576 725h64M400 726h64M576 726h64M400 727h64M576 727h64M400 728h64M576 728h64M400 729h64M576 729h64M400 730h64M576 730h64M400 731h64M576 731h64M400 732h64M576 732h64M400 733h64M576 733h64M400 734h64M576 734h64M400 735h64M576 735h64M400 736h64M576 736h64M400 737h64M576 737h64M400 738h64M576 738h64M400 739h64M576 739h64M400 740h64M576 740h64M400 741h64M576 741h64M400 742h64M576 742h64M400 743h64M576 743h64M400 744h64M576 744h64M400 745h64M576 745h64M400 746h64M576 746h64M400 747h64M576 747h64M400 748h64M576 748h64M400 749h64M576 749h64M400 750h64M576 750h64M400 751h64M576 751h64M400 752h64M576 752h48M400 753h64M576 753h48M400 754h64M576 754h48M400 755h64M576 755h48M400 756h64M576 756h48M400 757h64M576 757h48M400 758h64M576 758h48M400 759h64M576 759h48M400 760h64M576 760h48M400 761h64M576 761h48M400 762h64M576 762h48M400 763h64M576 763h48M400 764h64M576 764h48M400 765h64M576 765h48M400 766h64M576 766h48M400 767h64M576 767h48" />
<path stroke="#eb8b8b" d="M560 112h64M560 113h64M560 114h64M560 115h64M560 116h64M560 117h64M560 118h64M560 119h64M560 120h64M560 121h64M560 122h64M560 123h64M560 124h64M560 125h64M560 126h64M560 127h64M608 128h64M608 129h64M608 130h64M608 131h64M608 132h64M608 133h64M608 134h64M608 135h64M608 136h64M608 137h64M608 138h64M608 139h64M608 140h64M608 141h64M608 142h64M608 143h64M624 144h80M624 145h80M624 146h80M624 147h80M624 148h80M624 149h80M624 150h80M624 151h80M624 152h80M624 153h80M624 154h80M624 155h80M624 156h80M624 157h80M624 158h80M624 159h80M656 160h64M656 161h64M656 162h64M656 163h64M656 164h64M656 165h64M656 166h64M656 167h64M656 168h64M656 169h64M656 170h64M656 171h64M656 172h64M656 173h64M656 174h64M656 175h64M672 176h64M672 177h64M672 178h64M672 179h64M672 180h64M672 181h64M672 182h64M672 183h64M672 184h64M672 185h64M672 186h64M672 187h64M672 188h64M672 189h64M672 190h64M672 191h64M688 192h48M688 193h48M688 194h48M688 195h48M688 196h48M688 197h48M688 198h48M688 199h48M688 200h48M688 201h48M688 202h48M688 203h48M688 204h48M688 205h48M688 206h48M688 207h48M688 208h64M688 209h64M688 210h64M688 211h64M688 212h64M688 213h64M688 214h64M688 215h64M688 216h64M688 217h64M688 218h64M688 219h64M688 220h64M688 221h64M688 222h64M688 223h64M688 224h64M688 225h64M688 226h64M688 227h64M688 228h64M688 229h64M688 230h64M688 231h64M688 232h64M688 233h64M688 234h64M688 235h64M688 236h64M688 237h64M688 238h64M688 239h64M688 240h64M688 241h64M688 242h64M688 243h64M688 244h64M688 245h64M688 246h64M688 247h64M688 248h64M688 249h64M688 250h64M688 251h64M688 252h64M688 253h64M688 254h64M688 255h64M688 256h80M688 257h80M688 258h80M688 259h80M688 260h80M688 261h80M688 262h80M688 263h80M688 264h80M688 265h80M688 266h80M688 267h80M688 268h80M688 269h80M688 270h80M688 271h80M704 272h64M704 273h64M704 274h64M704 275h64M704 276h64M704 277h64M704 278h64M704 279h64M704 280h64M704 281h64M704 282h64M704 283h64M704 284h64M704 285h64M704 286h64M704 287h64M704 288h64M704 289h64M704 290h64M704 291h64M704 292h64M704 293h64M704 294h64M704 295h64M704 296h64M704 297h64M704 298h64M704 299h64M704 300h64M704 301h64M704 302h64M704 303h64M464 304h64M704 304h64M464 305h64M704 305h64M464 306h64M704 306h64M464 307h64M704 307h64M464 308h64M704 308h64M464 309h64M704 309h64M464 310h64M704 310h64M464 311h64M704 311h64M464 312h64M704 312h64M464 313h64M704 313h64M464 314h64M704 314h64M464 315h64M704 315h64M464 316h64M704 316h64M464 317h64M704 317h64M464 318h64M704 318h64M464 319h64M704 319h64M448 320h16M528 320h16M704 320h64M448 321h16M528 321h16M704 321h64M448 322h16M528 322h16M704 322h64M448 323h16M528 323h16M704 323h64M448 324h16M528 324h16M704 324h64M448 325h16M528 325h16M704 325h64M448 326h16M528 326h16M704 326h64M448 327h16M528 327h16M704 327h64M448 328h16M528 328h16M704 328h64M448 329h16M528 329h16M704 329h64M448 330h16M528 330h16M704 330h64M448 331h16M528 331h16M704 331h64M448 332h16M528 332h16M704 332h64M448 333h16M528 333h16M704 333h64M448 334h16M528 334h16M704 334h64M448 335h16M528 335h16M704 335h64M320 336h80M448 336h16M480 336h32M528 336h16M592 336h80M704 336h64M320 337h80M448 337h16M480 337h32M528 337h16M592 337h80M704 337h64M320 338h80M448 338h16M480 338h32M528 338h16M592 338h80M704 338h64M320 339h80M448 339h16M480 339h32M528 339h16M592 339h80M704 339h64M320 340h80M448 340h16M480 340h32M528 340h16M592 340h80M704 340h64M320 341h80M448 341h16M480 341h32M528 341h16M592 341h80M704 341h64M320 342h80M448 342h16M480 342h32M528 342h16M592 342h80M704 342h64M320 343h80M448 343h16M480 343h32M528 343h16M592 343h80M704 343h64M320 344h80M448 344h16M480 344h32M528 344h16M592 344h80M704 344h64M320 345h80M448 345h16M480 345h32M528 345h16M592 345h80M704 345h64M320 346h80M448 346h16M480 346h32M528 346h16M592 346h80M704 346h64M320 347h80M448 347h16M480 347h32M528 347h16M592 347h80M704 347h64M320 348h80M448 348h16M480 348h32M528 348h16M592 348h80M704 348h64M320 349h80M448 349h16M480 349h32M528 349h16M592 349h80M704 349h64M320 350h80M448 350h16M480 350h32M528 350h16M592 350h80M704 350h64M320 351h80M448 351h16M480 351h32M528 351h16M592 351h80M704 351h64M320 352h16M384 352h16M448 352h16M480 352h32M528 352h16M592 352h16M656 352h16M704 352h64M320 353h16M384 353h16M448 353h16M480 353h32M528 353h16M592 353h16M656 353h16M704 353h64M320 354h16M384 354h16M448 354h16M480 354h32M528 354h16M592 354h16M656 354h16M704 354h64M320 355h16M384 355h16M448 355h16M480 355h32M528 355h16M592 355h16M656 355h16M704 355h64M320 356h16M384 356h16M448 356h16M480 356h32M528 356h16M592 356h16M656 356h16M704 356h64M320 357h16M384 357h16M448 357h16M480 357h32M528 357h16M592 357h16M656 357h16M704 357h64M320 358h16M384 358h16M448 358h16M480 358h32M528 358h16M592 358h16M656 358h16M704 358h64M320 359h16M384 359h16M448 359h16M480 359h32M528 359h16M592 359h16M656 359h16M704 359h64M320 360h16M384 360h16M448 360h16M480 360h32M528 360h16M592 360h16M656 360h16M704 360h64M320 361h16M384 361h16M448 361h16M480 361h32M528 361h16M592 361h16M656 361h16M704 361h64M320 362h16M384 362h16M448 362h16M480 362h32M528 362h16M592 362h16M656 362h16M704 362h64M320 363h16M384 363h16M448 363h16M480 363h32M528 363h16M592 363h16M656 363h16M704 363h64M320 364h16M384 364h16M448 364h16M480 364h32M528 364h16M592 364h16M656 364h16M704 364h64M320 365h16M384 365h16M448 365h16M480 365h32M528 365h16M592 365h16M656 365h16M704 365h64M320 366h16M384 366h16M448 366h16M480 366h32M528 366h16M592 366h16M656 366h16M704 366h64M320 367h16M384 367h16M448 367h16M480 367h32M528 367h16M592 367h16M656 367h16M704 367h64M320 368h16M352 368h16M384 368h16M448 368h16M528 368h16M592 368h16M624 368h16M656 368h16M688 368h64M320 369h16M352 369h16M384 369h16M448 369h16M528 369h16M592 369h16M624 369h16M656 369h16M688 369h64M320 370h16M352 370h16M384 370h16M448 370h16M528 370h16M592 370h16M624 370h16M656 370h16M688 370h64M320 371h16M352 371h16M384 371h16M448 371h16M528 371h16M592 371h16M624 371h16M656 371h16M688 371h64M320 372h16M352 372h16M384 372h16M448 372h16M528 372h16M592 372h16M624 372h16M656 372h16M688 372h64M320 373h16M352 373h16M384 373h16M448 373h16M528 373h16M592 373h16M624 373h16M656 373h16M688 373h64M320 374h16M352 374h16M384 374h16M448 374h16M528 374h16M592 374h16M624 374h16M656 374h16M688 374h64M320 375h16M352 375h16M384 375h16M448 375h16M528 375h16M592 375h16M624 375h16M656 375h16M688 375h64M320 376h16M352 376h16M384 376h16M448 376h16M528 376h16M592 376h16M624 376h16M656 376h16M688 376h64M320 377h16M352 377h16M384 377h16M448 377h16M528 377h16M592 377h16M624 377h16M656 377h16M688 377h64M320 378h16M352 378h16M384 378h16M448 378h16M528 378h16M592 378h16M624 378h16M656 378h16M688 378h64M320 379h16M352 379h16M384 379h16M448 379h16M528 379h16M592 379h16M624 379h16M656 379h16M688 379h64M320 380h16M352 380h16M384 380h16M448 380h16M528 380h16M592 380h16M624 380h16M656 380h16M688 380h64M320 381h16M352 381h16M384 381h16M448 381h16M528 381h16M592 381h16M624 381h16M656 381h16M688 381h64M320 382h16M352 382h16M384 382h16M448 382h16M528 382h16M592 382h16M624 382h16M656 382h16M688 382h64M320 383h16M352 383h16M384 383h16M448 383h16M528 383h16M592 383h16M624 383h16M656 383h16M688 383h64M320 384h16M352 384h48M464 384h64M592 384h16M624 384h48M688 384h48M320 385h16M352 385h48M464 385h64M592 385h16M624 385h48M688 385h48M320 386h16M352 386h48M464 386h64M592 386h16M624 386h48M688 386h48M320 387h16M352 387h48M464 387h64M592 387h16M624 387h48M688 387h48M320 388h16M352 388h48M464 388h64M592 388h16M624 388h48M688 388h48M320 389h16M352 389h48M464 389h64M592 389h16M624 389h48M688 389h48M320 390h16M352 390h48M464 390h64M592 390h16M624 390h48M688 390h48M320 391h16M352 391h48M464 391h64M592 391h16M624 391h48M688 391h48M320 392h16M352 392h48M464 392h64M592 392h16M624 392h48M688 392h48M320 393h16M352 393h48M464 393h64M592 393h16M624 393h48M688 393h48M320 394h16M352 394h48M464 394h64M592 394h16M624 394h48M688 394h48M320 395h16M352 395h48M464 395h64M592 395h16M624 395h48M688 395h48M320 396h16M352 396h48M464 396h64M592 396h16M624 396h48M688 396h48M320 397h16M352 397h48M464 397h64M592 397h16M624 397h48M688 397h48M320 398h16M352 398h48M464 398h64M592 398h16M624 398h48M688 398h48M320 399h16M352 399h48M464 399h64M592 399h16M624 399h48M688 399h48M688 400h48M688 401h48M688 402h48M688 403h48M688 404h48M688 405h48M688 406h48M688 407h48M688 408h48M688 409h48M688 410h48M688 411h48M688 412h48M688 413h48M688 414h48M688 415h48M688 416h32M688 417h32M688 418h32M688 419h32M688 420h32M688 421h32M688 422h32M688 423h32M688 424h32M688 425h32M688 426h32M688 427h32M688 428h32M688 429h32M688 430h32M688 431h32M672 432h64M672 433h64M672 434h64M672 435h64M672 436h64M672 437h64M672 438h64M672 439h64M672 440h64M672 441h64M672 442h64M672 443h64M672 444h64M672 445h64M672 446h64M672 447h64M656 448h96M656 449h96M656 450h96M656 451h96M656 452h96M656 453h96M656 454h96M656 455h96M656 456h96M656 457h96M656 458h96M656 459h96M656 460h96M656 461h96M656 462h96M656 463h96M480 464h16M640 464h112M480 465h16M640 465h112M480 466h16M640 466h112M480 467h16M640 467h112M480 468h16M640 468h112M480 469h16M640 469h112M480 470h16M640 470h112M480 471h16M640 471h112M480 472h16M640 472h112M480 473h16M640 473h112M480 474h16M640 474h112M480 475h16M640 475h112M480 476h16M640 476h112M480 477h16M640 477h112M480 478h16M640 478h112M480 479h16M640 479h112M320 480h32M448 480h32M624 480h128M320 481h32M448 481h32M624 481h128M320 482h32M448 482h32M624 482h128M320 483h32M448 483h32M624 483h128M320 484h32M448 484h32M624 484h128M320 485h32M448 485h32M624 485h128M320 486h32M448 486h32M624 486h128M320 487h32M448 487h32M624 487h128M320 488h32M448 488h32M624 488h128M320 489h32M448 489h32M624 489h128M320 490h32M448 490h32M624 490h128M320 491h32M448 491h32M624 491h128M320 492h32M448 492h32M624 492h128M320 493h32M448 493h32M624 493h128M320 494h32M448 494h32M624 494h128M320 495h32M448 495h32M624 495h128M288 496h48M400 496h64M512 496h32M608 496h32M656 496h96M288 497h48M400 497h64M512 497h32M608 497h32M656 497h96M288 498h48M400 498h64M512 498h32M608 498h32M656 498h96M288 499h48M400 499h64M512 499h32M608 499h32M656 499h96M288 500h48M400 500h64M512 500h32M608 500h32M656 500h96M288 501h48M400 501h64M512 501h32M608 501h32M656 501h96M288 502h48M400 502h64M512 502h32M608 502h32M656 502h96M288 503h48M400 503h64M512 503h32M608 503h32M656 503h96M288 504h48M400 504h64M512 504h32M608 504h32M656 504h96M288 505h48M400 505h64M512 505h32M608 505h32M656 505h96M288 506h48M400 506h64M512 506h32M608 506h32M656 506h96M288 507h48M400 507h64M512 507h32M608 507h32M656 507h96M288 508h48M400 508h64M512 508h32M608 508h32M656 508h96M288 509h48M400 509h64M512 509h32M608 509h32M656 509h96M288 510h48M400 510h64M512 510h32M608 510h32M656 510h96M288 511h48M400 511h64M512 511h32M608 511h32M656 511h96M272 512h48M368 512h80M528 512h96M672 512h64M272 513h48M368 513h80M528 513h96M672 513h64M272 514h48M368 514h80M528 514h96M672 514h64M272 515h48M368 515h80M528 515h96M672 515h64M272 516h48M368 516h80M528 516h96M672 516h64M272 517h48M368 517h80M528 517h96M672 517h64M272 518h48M368 518h80M528 518h96M672 518h64M272 519h48M368 519h80M528 519h96M672 519h64M272 520h48M368 520h80M528 520h96M672 520h64M272 521h48M368 521h80M528 521h96M672 521h64M272 522h48M368 522h80M528 522h96M672 522h64M272 523h48M368 523h80M528 523h96M672 523h64M272 524h48M368 524h80M528 524h96M672 524h64M272 525h48M368 525h80M528 525h96M672 525h64M272 526h48M368 526h80M528 526h96M672 526h64M272 527h48M368 527h80M528 527h96M672 527h64M112 592h64M112 593h64M112 594h64M112 595h64M112 596h64M112 597h64M112 598h64M112 599h64M112 600h64M112 601h64M112 602h64M112 603h64M112 604h64M112 605h64M112 606h64M112 607h64M112 608h64M112 609h64M112 610h64M112 611h64M112 612h64M112 613h64M112 614h64M112 615h64M112 616h64M112 617h64M112 618h64M112 619h64M112 620h64M112 621h64M112 622h64M112 623h64M112 624h64M112 625h64M112 626h64M112 627h64M112 628h64M112 629h64M112 630h64M112 631h64M112 632h64M112 633h64M112 634h64M112 635h64M112 636h64M112 637h64M112 638h64M112 639h64M112 640h64M112 641h64M112 642h64M112 643h64M112 644h64M112 645h64M112 646h64M112 647h64M112 648h64M112 649h64M112 650h64M112 651h64M112 652h64M112 653h64M112 654h64M112 655h64M384 800h64M576 800h64M384 801h64M576 801h64M384 802h64M576 802h64M384 803h64M576 803h64M384 804h64M576 804h64M384 805h64M576 805h64M384 806h64M576 806h64M384 807h64M576 807h64M384 808h64M576 808h64M384 809h64M576 809h64M384 810h64M576 810h64M384 811h64M576 811h64M384 812h64M576 812h64M384 813h64M576 813h64M384 814h64M576 814h64M384 815h64M576 815h64M384 816h64M576 816h64M384 817h64M576 817h64M384 818h64M576 818h64M384 819h64M576 819h64M384 820h64M576 820h64M384 821h64M576 821h64M384 822h64M576 822h64M384 823h64M576 823h64M384 824h64M576 824h64M384 825h64M576 825h64M384 826h64M576 826h64M384 827h64M576 827h64M384 828h64M576 828h64M384 829h64M576 829h64M384 830h64M576 830h64M384 831h64M576 831h64M384 832h80M560 832h80M384 833h80M560 833h80M384 834h80M560 834h80M384 835h80M560 835h80M384 836h80M560 836h80M384 837h80M560 837h80M384 838h80M560 838h80M384 839h80M560 839h80M384 840h80M560 840h80M384 841h80M560 841h80M384 842h80M560 842h80M384 843h80M560 843h80M384 844h80M560 844h80M384 845h80M560 845h80M384 846h80M560 846h80M384 847h80M560 847h80" />
<path stroke="#261d1d" d="M352 256h32M608 256h32M352 257h32M608 257h32M352 258h32M608 258h32M352 259h32M608 259h32M352 260h32M608 260h32M352 261h32M608 261h32M352 262h32M608 262h32M352 263h32M608 263h32M352 264h32M608 264h32M352 265h32M608 265h32M352 266h32M608 266h32M352 267h32M608 267h32M352 268h32M608 268h32M352 269h32M608 269h32M352 270h32M608 270h32M352 271h32M608 271h32M336 272h16M368 272h32M592 272h16M624 272h32M336 273h16M368 273h32M592 273h16M624 273h32M336 274h16M368 274h32M592 274h16M624 274h32M336 275h16M368 275h32M592 275h16M624 275h32M336 276h16M368 276h32M592 276h16M624 276h32M336 277h16M368 277h32M592 277h16M624 277h32M336 278h16M368 278h32M592 278h16M624 278h32M336 279h16M368 279h32M592 279h16M624 279h32M336 280h16M368 280h32M592 280h16M624 280h32M336 281h16M368 281h32M592 281h16M624 281h32M336 282h16M368 282h32M592 282h16M624 282h32M336 283h16M368 283h32M592 283h16M624 283h32M336 284h16M368 284h32M592 284h16M624 284h32M336 285h16M368 285h32M592 285h16M624 285h32M336 286h16M368 286h32M592 286h16M624 286h32M336 287h16M368 287h32M592 287h16M624 287h32M336 288h64M592 288h64M336 289h64M592 289h64M336 290h64M592 290h64M336 291h64M592 291h64M336 292h64M592 292h64M336 293h64M592 293h64M336 294h64M592 294h64M336 295h64M592 295h64M336 296h64M592 296h64M336 297h64M592 297h64M336 298h64M592 298h64M336 299h64M592 299h64M336 300h64M592 300h64M336 301h64M592 301h64M336 302h64M592 302h64M336 303h64M592 303h64M352 304h32M608 304h32M352 305h32M608 305h32M352 306h32M608 306h32M352 307h32M608 307h32M352 308h32M608 308h32M352 309h32M608 309h32M352 310h32M608 310h32M352 311h32M608 311h32M352 312h32M608 312h32M352 313h32M608 313h32M352 314h32M608 314h32M352 315h32M608 315h32M352 316h32M608 316h32M352 317h32M608 317h32M352 318h32M608 318h32M352 319h32M608 319h32M304 528h16M704 528h16M304 529h16M704 529h16M304 530h16M704 530h16M304 531h16M704 531h16M304 532h16M704 532h16M304 533h16M704 533h16M304 534h16M704 534h16M304 535h16M704 535h16M304 536h16M704 536h16M304 537h16M704 537h16M304 538h16M704 538h16M304 539h16M704 539h16M304 540h16M704 540h16M304 541h16M704 541h16M304 542h16M704 542h16M304 543h16M704 543h16M304 544h16M704 544h16M304 545h16M704 545h16M304 546h16M704 546h16M304 547h16M704 547h16M304 548h16M704 548h16M304 549h16M704 549h16M304 550h16M704 550h16M304 551h16M704 551h16M304 552h16M704 552h16M304 553h16M704 553h16M304 554h16M704 554h16M304 555h16M704 555h16M304 556h16M704 556h16M304 557h16M704 557h16M304 558h16M704 558h16M304 559h16M704 559h16M304 560h16M704 560h16M304 561h16M704 561h16M304 562h16M704 562h16M304 563h16M704 563h16M304 564h16M704 564h16M304 565h16M704 565h16M304 566h16M704 566h16M304 567h16M704 567h16M304 568h16M704 568h16M304 569h16M704 569h16M304 570h16M704 570h16M304 571h16M704 571h16M304 572h16M704 572h16M304 573h16M704 573h16M304 574h16M704 574h16M304 575h16M704 575h16M304 576h16M704 576h16M304 577h16M704 577h16M304 578h16M704 578h16M304 579h16M704 579h16M304 580h16M704 580h16M304 581h16M704 581h16M304 582h16M704 582h16M304 583h16M704 583h16M304 584h16M704 584h16M304 585h16M704 585h16M304 586h16M704 586h16M304 587h16M704 587h16M304 588h16M704 588h16M304 589h16M704 589h16M304 590h16M704 590h16M304 591h16M704 591h16M304 592h16M704 592h16M304 593h16M704 593h16M304 594h16M704 594h16M304 595h16M704 595h16M304 596h16M704 596h16M304 597h16M704 597h16M304 598h16M704 598h16M304 599h16M704 599h16M304 600h16M704 600h16M304 601h16M704 601h16M304 602h16M704 602h16M304 603h16M704 603h16M304 604h16M704 604h16M304 605h16M704 605h16M304 606h16M704 606h16M304 607h16M704 607h16M304 608h16M352 608h320M704 608h16M304 609h16M352 609h320M704 609h16M304 610h16M352 610h320M704 610h16M304 611h16M352 611h320M704 611h16M304 612h16M352 612h320M704 612h16M304 613h16M352 613h320M704 613h16M304 614h16M352 614h320M704 614h16M304 615h16M352 615h320M704 615h16M304 616h16M352 616h320M704 616h16M304 617h16M352 617h320M704 617h16M304 618h16M352 618h320M704 618h16M304 619h16M352 619h320M704 619h16M304 620h16M352 620h320M704 620h16M304 621h16M352 621h320M704 621h16M304 622h16M352 622h320M704 622h16M304 623h16M352 623h320M704 623h16M304 624h16M384 624h80M560 624h80M704 624h16M304 625h16M384 625h80M560 625h80M704 625h16M304 626h16M384 626h80M560 626h80M704 626h16M304 627h16M384 627h80M560 627h80M704 627h16M304 628h16M384 628h80M560 628h80M704 628h16M304 629h16M384 629h80M560 629h80M704 629h16M304 630h16M384 630h80M560 630h80M704 630h16M304 631h16M384 631h80M560 631h80M704 631h16M304 632h16M384 632h80M560 632h80M704 632h16M304 633h16M384 633h80M560 633h80M704 633h16M304 634h16M384 634h80M560 634h80M704 634h16M304 635h16M384 635h80M560 635h80M704 635h16M304 636h16M384 636h80M560 636h80M704 636h16M304 637h16M384 637h80M560 637h80M704 637h16M304 638h16M384 638h80M560 638h80M704 638h16M304 639h16M384 639h80M560 639h80M704 639h16M368 640h16M640 640h16M368 641h16M640 641h16M368 642h16M640 642h16M368 643h16M640 643h16M368 644h16M640 644h16M368 645h16M640 645h16M368 646h16M640 646h16M368 647h16M640 647h16M368 648h16M640 648h16M368 649h16M640 649h16M368 650h16M640 650h16M368 651h16M640 651h16M368 652h16M640 652h16M368 653h16M640 653h16M368 654h16M640 654h16M368 655h16M640 655h16M304 704h16M304 705h16M304 706h16M304 707h16M304 708h16M304 709h16M304 710h16M304 711h16M304 712h16M304 713h16M304 714h16M304 715h16M304 716h16M304 717h16M304 718h16M304 719h16M304 720h16M640 720h16M304 721h16M640 721h16M304 722h16M640 722h16M304 723h16M640 723h16M304 724h16M640 724h16M304 725h16M640 725h16M304 726h16M640 726h16M304 727h16M640 727h16M304 728h16M640 728h16M304 729h16M640 729h16M304 730h16M640 730h16M304 731h16M640 731h16M304 732h16M640 732h16M304 733h16M640 733h16M304 734h16M640 734h16M304 735h16M640 735h16M304 736h16M640 736h16M304 737h16M640 737h16M304 738h16M640 738h16M304 739h16M640 739h16M304 740h16M640 740h16M304 741h16M640 741h16M304 742h16M640 742h16M304 743h16M640 743h16M304 744h16M640 744h16M304 745h16M640 745h16M304 746h16M640 746h16M304 747h16M640 747h16M304 748h16M640 748h16M304 749h16M640 749h16M304 750h16M640 750h16M304 751h16M640 751h16M288 752h16M384 752h16M624 752h32M288 753h16M384 753h16M624 753h32M288 754h16M384 754h16M624 754h32M288 755h16M384 755h16M624 755h32M288 756h16M384 756h16M624 756h32M288 757h16M384 757h16M624 757h32M288 758h16M384 758h16M624 758h32M288 759h16M384 759h16M624 759h32M288 760h16M384 760h16M624 760h32M288 761h16M384 761h16M624 761h32M288 762h16M384 762h16M624 762h32M288 763h16M384 763h16M624 763h32M288 764h16M384 764h16M624 764h32M288 765h16M384 765h16M624 765h32M288 766h16M384 766h16M624 766h32M288 767h16M384 767h16M624 767h32M272 768h32M384 768h80M560 768h96M720 768h32M272 769h32M384 769h80M560 769h96M720 769h32M272 770h32M384 770h80M560 770h96M720 770h32M272 771h32M384 771h80M560 771h96M720 771h32M272 772h32M384 772h80M560 772h96M720 772h32M272 773h32M384 773h80M560 773h96M720 773h32M272 774h32M384 774h80M560 774h96M720 774h32M272 775h32M384 775h80M560 775h96M720 775h32M272 776h32M384 776h80M560 776h96M720 776h32M272 777h32M384 777h80M560 777h96M720 777h32M272 778h32M384 778h80M560 778h96M720 778h32M272 779h32M384 779h80M560 779h96M720 779h32M272 780h32M384 780h80M560 780h96M720 780h32M272 781h32M384 781h80M560 781h96M720 781h32M272 782h32M384 782h80M560 782h96M720 782h32M272 783h32M384 783h80M560 783h96M720 783h32M272 784h16M384 784h80M560 784h112M736 784h16M272 785h16M384 785h80M560 785h112M736 785h16M272 786h16M384 786h80M560 786h112M736 786h16M272 787h16M384 787h80M560 787h112M736 787h16M272 788h16M384 788h80M560 788h112M736 788h16M272 789h16M384 789h80M560 789h112M736 789h16M272 790h16M384 790h80M560 790h112M736 790h16M272 791h16M384 791h80M560 791h112M736 791h16M272 792h16M384 792h80M560 792h112M736 792h16M272 793h16M384 793h80M560 793h112M736 793h16M272 794h16M384 794h80M560 794h112M736 794h16M272 795h16M384 795h80M560 795h112M736 795h16M272 796h16M384 796h80M560 796h112M736 796h16M272 797h16M384 797h80M560 797h112M736 797h16M272 798h16M384 798h80M560 798h112M736 798h16M272 799h16M384 799h80M560 799h112M736 799h16M272 800h16M736 800h16M272 801h16M736 801h16M272 802h16M736 802h16M272 803h16M736 803h16M272 804h16M736 804h16M272 805h16M736 805h16M272 806h16M736 806h16M272 807h16M736 807h16M272 808h16M736 808h16M272 809h16M736 809h16M272 810h16M736 810h16M272 811h16M736 811h16M272 812h16M736 812h16M272 813h16M736 813h16M272 814h16M736 814h16M272 815h16M736 815h16M272 816h16M736 816h16M272 817h16M736 817h16M272 818h16M736 818h16M272 819h16M736 819h16M272 820h16M736 820h16M272 821h16M736 821h16M272 822h16M736 822h16M272 823h16M736 823h16M272 824h16M736 824h16M272 825h16M736 825h16M272 826h16M736 826h16M272 827h16M736 827h16M272 828h16M736 828h16M272 829h16M736 829h16M272 830h16M736 830h16M272 831h16M736 831h16M272 832h48M704 832h48M272 833h48M704 833h48M272 834h48M704 834h48M272 835h48M704 835h48M272 836h48M704 836h48M272 837h48M704 837h48M272 838h48M704 838h48M272 839h48M704 839h48M272 840h48M704 840h48M272 841h48M704 841h48M272 842h48M704 842h48M272 843h48M704 843h48M272 844h48M704 844h48M272 845h48M704 845h48M272 846h48M704 846h48M272 847h48M704 847h48M304 848h416M304 849h416M304 850h416M304 851h416M304 852h416M304 853h416M304 854h416M304 855h416M304 856h416M304 857h416M304 858h416M304 859h416M304 860h416M304 861h416M304 862h416M304 863h416" />
<path stroke="#ffffff" d="M352 272h16M608 272h16M352 273h16M608 273h16M352 274h16M608 274h16M352 275h16M608 275h16M352 276h16M608 276h16M352 277h16M608 277h16M352 278h16M608 278h16M352 279h16M608 279h16M352 280h16M608 280h16M352 281h16M608 281h16M352 282h16M608 282h16M352 283h16M608 283h16M352 284h16M608 284h16M352 285h16M608 285h16M352 286h16M608 286h16M352 287h16M608 287h16M336 528h16M368 528h16M448 528h16M480 528h16M624 528h16M336 529h16M368 529h16M448 529h16M480 529h16M624 529h16M336 530h16M368 530h16M448 530h16M480 530h16M624 530h16M336 531h16M368 531h16M448 531h16M480 531h16M624 531h16M336 532h16M368 532h16M448 532h16M480 532h16M624 532h16M336 533h16M368 533h16M448 533h16M480 533h16M624 533h16M336 534h16M368 534h16M448 534h16M480 534h16M624 534h16M336 535h16M368 535h16M448 535h16M480 535h16M624 535h16M336 536h16M368 536h16M448 536h16M480 536h16M624 536h16M336 537h16M368 537h16M448 537h16M480 537h16M624 537h16M336 538h16M368 538h16M448 538h16M480 538h16M624 538h16M336 539h16M368 539h16M448 539h16M480 539h16M624 539h16M336 540h16M368 540h16M448 540h16M480 540h16M624 540h16M336 541h16M368 541h16M448 541h16M480 541h16M624 541h16M336 542h16M368 542h16M448 542h16M480 542h16M624 542h16M336 543h16M368 543h16M448 543h16M480 543h16M624 543h16M384 640h16M624 640h16M384 641h16M624 641h16M384 642h16M624 642h16M384 643h16M624 643h16M384 644h16M624 644h16M384 645h16M624 645h16M384 646h16M624 646h16M384 647h16M624 647h16M384 648h16M624 648h16M384 649h16M624 649h16M384 650h16M624 650h16M384 651h16M624 651h16M384 652h16M624 652h16M384 653h16M624 653h16M384 654h16M624 654h16M384 655h16M624 655h16M384 656h16M624 656h16M384 657h16M624 657h16M384 658h16M624 658h16M384 659h16M624 659h16M384 660h16M624 660h16M384 661h16M624 661h16M384 662h16M624 662h16M384 663h16M624 663h16M384 664h16M624 664h16M384 665h16M624 665h16M384 666h16M624 666h16M384 667h16M624 667h16M384 668h16M624 668h16M384 669h16M624 669h16M384 670h16M624 670h16M384 671h16M624 671h16M384 672h16M624 672h16M384 673h16M624 673h16M384 674h16M624 674h16M384 675h16M624 675h16M384 676h16M624 676h16M384 677h16M624 677h16M384 678h16M624 678h16M384 679h16M624 679h16M384 680h16M624 680h16M384 681h16M624 681h16M384 682h16M624 682h16M384 683h16M624 683h16M384 684h16M624 684h16M384 685h16M624 685h16M384 686h16M624 686h16M384 687h16M624 687h16M448 800h16M560 800h16M448 801h16M560 801h16M448 802h16M560 802h16M448 803h16M560 803h16M448 804h16M560 804h16M448 805h16M560 805h16M448 806h16M560 806h16M448 807h16M560 807h16M448 808h16M560 808h16M448 809h16M560 809h16M448 810h16M560 810h16M448 811h16M560 811h16M448 812h16M560 812h16M448 813h16M560 813h16M448 814h16M560 814h16M448 815h16M560 815h16M448 816h32M544 816h32M448 817h32M544 817h32M448 818h32M544 818h32M448 819h32M544 819h32M448 820h32M544 820h32M448 821h32M544 821h32M448 822h32M544 822h32M448 823h32M544 823h32M448 824h32M544 824h32M448 825h32M544 825h32M448 826h32M544 826h32M448 827h32M544 827h32M448 828h32M544 828h32M448 829h32M544 829h32M448 830h32M544 830h32M448 831h32M544 831h32M464 832h96M464 833h96M464 834h96M464 835h96M464 836h96M464 837h96M464 838h96M464 839h96M464 840h96M464 841h96M464 842h96M464 843h96M464 844h96M464 845h96M464 846h96M464 847h96" />
<path stroke="#352a2a" d="M480 480h16M480 481h16M480 482h16M480 483h16M480 484h16M480 485h16M480 486h16M480 487h16M480 488h16M480 489h16M480 490h16M480 491h16M480 492h16M480 493h16M480 494h16M480 495h16M336 496h16M464 496h48M640 496h16M336 497h16M464 497h48M640 497h16M336 498h16M464 498h48M640 498h16M336 499h16M464 499h48M640 499h16M336 500h16M464 500h48M640 500h16M336 501h16M464 501h48M640 501h16M336 502h16M464 502h48M640 502h16M336 503h16M464 503h48M640 503h16M336 504h16M464 504h48M640 504h16M336 505h16M464 505h48M640 505h16M336 506h16M464 506h48M640 506h16M336 507h16M464 507h48M640 507h16M336 508h16M464 508h48M640 508h16M336 509h16M464 509h48M640 509h16M336 510h16M464 510h48M640 510h16M336 511h16M464 511h48M640 511h16M320 512h48M448 512h80M624 512h48M320 513h48M448 513h80M624 513h48M320 514h48M448 514h80M624 514h48M320 515h48M448 515h80M624 515h48M320 516h48M448 516h80M624 516h48M320 517h48M448 517h80M624 517h48M320 518h48M448 518h80M624 518h48M320 519h48M448 519h80M624 519h48M320 520h48M448 520h80M624 520h48M320 521h48M448 521h80M624 521h48M320 522h48M448 522h80M624 522h48M320 523h48M448 523h80M624 523h48M320 524h48M448 524h80M624 524h48M320 525h48M448 525h80M624 525h48M320 526h48M448 526h80M624 526h48M320 527h48M448 527h80M624 527h48M320 528h16M352 528h16M384 528h16M416 528h32M464 528h16M496 528h64M576 528h48M640 528h32M320 529h16M352 529h16M384 529h16M416 529h32M464 529h16M496 529h64M576 529h48M640 529h32M320 530h16M352 530h16M384 530h16M416 530h32M464 530h16M496 530h64M576 530h48M640 530h32M320 531h16M352 531h16M384 531h16M416 531h32M464 531h16M496 531h64M576 531h48M640 531h32M320 532h16M352 532h16M384 532h16M416 532h32M464 532h16M496 532h64M576 532h48M640 532h32M320 533h16M352 533h16M384 533h16M416 533h32M464 533h16M496 533h64M576 533h48M640 533h32M320 534h16M352 534h16M384 534h16M416 534h32M464 534h16M496 534h64M576 534h48M640 534h32M320 535h16M352 535h16M384 535h16M416 535h32M464 535h16M496 535h64M576 535h48M640 535h32M320 536h16M352 536h16M384 536h16M416 536h32M464 536h16M496 536h64M576 536h48M640 536h32M320 537h16M352 537h16M384 537h16M416 537h32M464 537h16M496 537h64M576 537h48M640 537h32M320 538h16M352 538h16M384 538h16M416 538h32M464 538h16M496 538h64M576 538h48M640 538h32M320 539h16M352 539h16M384 539h16M416 539h32M464 539h16M496 539h64M576 539h48M640 539h32M320 540h16M352 540h16M384 540h16M416 540h32M464 540h16M496 540h64M576 540h48M640 540h32M320 541h16M352 541h16M384 541h16M416 541h32M464 541h16M496 541h64M576 541h48M640 541h32M320 542h16M352 542h16M384 542h16M416 542h32M464 542h16M496 542h64M576 542h48M640 542h32M320 543h16M352 543h16M384 543h16M416 543h32M464 543h16M496 543h64M576 543h48M640 543h32M320 544h80M416 544h144M576 544h96M320 545h80M416 545h144M576 545h96M320 546h80M416 546h144M576 546h96M320 547h80M416 547h144M576 547h96M320 548h80M416 548h144M576 548h96M320 549h80M416 549h144M576 549h96M320 550h80M416 550h144M576 550h96M320 551h80M416 551h144M576 551h96M320 552h80M416 552h144M576 552h96M320 553h80M416 553h144M576 553h96M320 554h80M416 554h144M576 554h96M320 555h80M416 555h144M576 555h96M320 556h80M416 556h144M576 556h96M320 557h80M416 557h144M576 557h96M320 558h80M416 558h144M576 558h96M320 559h80M416 559h144M576 559h96M320 560h64M448 560h96M608 560h64M320 561h64M448 561h96M608 561h64M320 562h64M448 562h96M608 562h64M320 563h64M448 563h96M608 563h64M320 564h64M448 564h96M608 564h64M320 565h64M448 565h96M608 565h64M320 566h64M448 566h96M608 566h64M320 567h64M448 567h96M608 567h64M320 568h64M448 568h96M608 568h64M320 569h64M448 569h96M608 569h64M320 570h64M448 570h96M608 570h64M320 571h64M448 571h96M608 571h64M320 572h64M448 572h96M608 572h64M320 573h64M448 573h96M608 573h64M320 574h64M448 574h96M608 574h64M320 575h64M448 575h96M608 575h64M320 576h64M448 576h96M608 576h64M320 577h64M448 577h96M608 577h64M320 578h64M448 578h96M608 578h64M320 579h64M448 579h96M608 579h64M320 580h64M448 580h96M608 580h64M320 581h64M448 581h96M608 581h64M320 582h64M448 582h96M608 582h64M320 583h64M448 583h96M608 583h64M320 584h64M448 584h96M608 584h64M320 585h64M448 585h96M608 585h64M320 586h64M448 586h96M608 586h64M320 587h64M448 587h96M608 587h64M320 588h64M448 588h96M608 588h64M320 589h64M448 589h96M608 589h64M320 590h64M448 590h96M608 590h64M320 591h64M448 591h96M608 591h64M320 592h32M320 593h32M320 594h32M320 595h32M320 596h32M320 597h32M320 598h32M320 599h32M320 600h32M320 601h32M320 602h32M320 603h32M320 604h32M320 605h32M320 606h32M320 607h32M320 608h16M320 609h16M320 610h16M320 611h16M320 612h16M320 613h16M320 614h16M320 615h16M320 616h16M320 617h16M320 618h16M320 619h16M320 620h16M320 621h16M320 622h16M320 623h16M320 624h16M320 625h16M320 626h16M320 627h16M320 628h16M320 629h16M320 630h16M320 631h16M320 632h16M320 633h16M320 634h16M320 635h16M320 636h16M320 637h16M320 638h16M320 639h16M320 640h16M320 641h16M320 642h16M320 643h16M320 644h16M320 645h16M320 646h16M320 647h16M320 648h16M320 649h16M320 650h16M320 651h16M320 652h16M320 653h16M320 654h16M320 655h16M320 656h16M320 657h16M320 658h16M320 659h16M320 660h16M320 661h16M320 662h16M320 663h16M320 664h16M320 665h16M320 666h16M320 667h16M320 668h16M320 669h16M320 670h16M320 671h16M320 672h16M320 673h16M320 674h16M320 675h16M320 676h16M320 677h16M320 678h16M320 679h16M320 680h16M320 681h16M320 682h16M320 683h16M320 684h16M320 685h16M320 686h16M320 687h16M320 688h16M320 689h16M320 690h16M320 691h16M320 692h16M320 693h16M320 694h16M320 695h16M320 696h16M320 697h16M320 698h16M320 699h16M320 700h16M320 701h16M320 702h16M320 703h16M320 704h16M320 705h16M320 706h16M320 707h16M320 708h16M320 709h16M320 710h16M320 711h16M320 712h16M320 713h16M320 714h16M320 715h16M320 716h16M320 717h16M320 718h16M320 719h16M320 720h16M320 721h16M320 722h16M320 723h16M320 724h16M320 725h16M320 726h16M320 727h16M320 728h16M320 729h16M320 730h16M320 731h16M320 732h16M320 733h16M320 734h16M320 735h16M320 736h16M320 737h16M320 738h16M320 739h16M320 740h16M320 741h16M320 742h16M320 743h16M320 744h16M320 745h16M320 746h16M320 747h16M320 748h16M320 749h16M320 750h16M320 751h16" />
<path stroke="#2e2424" d="M400 528h16M560 528h16M672 528h32M400 529h16M560 529h16M672 529h32M400 530h16M560 530h16M672 530h32M400 531h16M560 531h16M672 531h32M400 532h16M560 532h16M672 532h32M400 533h16M560 533h16M672 533h32M400 534h16M560 534h16M672 534h32M400 535h16M560 535h16M672 535h32M400 536h16M560 536h16M672 536h32M400 537h16M560 537h16M672 537h32M400 538h16M560 538h16M672 538h32M400 539h16M560 539h16M672 539h32M400 540h16M560 540h16M672 540h32M400 541h16M560 541h16M672 541h32M400 542h16M560 542h16M672 542h32M400 543h16M560 543h16M672 543h32M400 544h16M560 544h16M672 544h32M400 545h16M560 545h16M672 545h32M400 546h16M560 546h16M672 546h32M400 547h16M560 547h16M672 547h32M400 548h16M560 548h16M672 548h32M400 549h16M560 549h16M672 549h32M400 550h16M560 550h16M672 550h32M400 551h16M560 551h16M672 551h32M400 552h16M560 552h16M672 552h32M400 553h16M560 553h16M672 553h32M400 554h16M560 554h16M672 554h32M400 555h16M560 555h16M672 555h32M400 556h16M560 556h16M672 556h32M400 557h16M560 557h16M672 557h32M400 558h16M560 558h16M672 558h32M400 559h16M560 559h16M672 559h32M384 560h64M544 560h64M672 560h32M384 561h64M544 561h64M672 561h32M384 562h64M544 562h64M672 562h32M384 563h64M544 563h64M672 563h32M384 564h64M544 564h64M672 564h32M384 565h64M544 565h64M672 565h32M384 566h64M544 566h64M672 566h32M384 567h64M544 567h64M672 567h32M384 568h64M544 568h64M672 568h32M384 569h64M544 569h64M672 569h32M384 570h64M544 570h64M672 570h32M384 571h64M544 571h64M672 571h32M384 572h64M544 572h64M672 572h32M384 573h64M544 573h64M672 573h32M384 574h64M544 574h64M672 574h32M384 575h64M544 575h64M672 575h32M384 576h64M544 576h64M672 576h32M384 577h64M544 577h64M672 577h32M384 578h64M544 578h64M672 578h32M384 579h64M544 579h64M672 579h32M384 580h64M544 580h64M672 580h32M384 581h64M544 581h64M672 581h32M384 582h64M544 582h64M672 582h32M384 583h64M544 583h64M672 583h32M384 584h64M544 584h64M672 584h32M384 585h64M544 585h64M672 585h32M384 586h64M544 586h64M672 586h32M384 587h64M544 587h64M672 587h32M384 588h64M544 588h64M672 588h32M384 589h64M544 589h64M672 589h32M384 590h64M544 590h64M672 590h32M384 591h64M544 591h64M672 591h32M352 592h352M352 593h352M352 594h352M352 595h352M352 596h352M352 597h352M352 598h352M352 599h352M352 600h352M352 601h352M352 602h352M352 603h352M352 604h352M352 605h352M352 606h352M352 607h352M336 608h16M672 608h32M336 609h16M672 609h32M336 610h16M672 610h32M336 611h16M672 611h32M336 612h16M672 612h32M336 613h16M672 613h32M336 614h16M672 614h32M336 615h16M672 615h32M336 616h16M672 616h32M336 617h16M672 617h32M336 618h16M672 618h32M336 619h16M672 619h32M336 620h16M672 620h32M336 621h16M672 621h32M336 622h16M672 622h32M336 623h16M672 623h32M336 624h16M672 624h32M336 625h16M672 625h32M336 626h16M672 626h32M336 627h16M672 627h32M336 628h16M672 628h32M336 629h16M672 629h32M336 630h16M672 630h32M336 631h16M672 631h32M336 632h16M672 632h32M336 633h16M672 633h32M336 634h16M672 634h32M336 635h16M672 635h32M336 636h16M672 636h32M336 637h16M672 637h32M336 638h16M672 638h32M336 639h16M672 639h32M336 640h16M672 640h32M336 641h16M672 641h32M336 642h16M672 642h32M336 643h16M672 643h32M336 644h16M672 644h32M336 645h16M672 645h32M336 646h16M672 646h32M336 647h16M672 647h32M336 648h16M672 648h32M336 649h16M672 649h32M336 650h16M672 650h32M336 651h16M672 651h32M336 652h16M672 652h32M336 653h16M672 653h32M336 654h16M672 654h32M336 655h16M672 655h32M336 656h16M672 656h32M336 657h16M672 657h32M336 658h16M672 658h32M336 659h16M672 659h32M336 660h16M672 660h32M336 661h16M672 661h32M336 662h16M672 662h32M336 663h16M672 663h32M336 664h16M672 664h32M336 665h16M672 665h32M336 666h16M672 666h32M336 667h16M672 667h32M336 668h16M672 668h32M336 669h16M672 669h32M336 670h16M672 670h32M336 671h16M672 671h32M336 672h16M672 672h32M336 673h16M672 673h32M336 674h16M672 674h32M336 675h16M672 675h32M336 676h16M672 676h32M336 677h16M672 677h32M336 678h16M672 678h32M336 679h16M672 679h32M336 680h16M672 680h32M336 681h16M672 681h32M336 682h16M672 682h32M336 683h16M672 683h32M336 684h16M672 684h32M336 685h16M672 685h32M336 686h16M672 686h32M336 687h16M672 687h32M336 688h16M672 688h32M336 689h16M672 689h32M336 690h16M672 690h32M336 691h16M672 691h32M336 692h16M672 692h32M336 693h16M672 693h32M336 694h16M672 694h32M336 695h16M672 695h32M336 696h16M672 696h32M336 697h16M672 697h32M336 698h16M672 698h32M336 699h16M672 699h32M336 700h16M672 700h32M336 701h16M672 701h32M336 702h16M672 702h32M336 703h16M672 703h32M336 704h32M656 704h64M336 705h32M656 705h64M336 706h32M656 706h64M336 707h32M656 707h64M336 708h32M656 708h64M336 709h32M656 709h64M336 710h32M656 710h64M336 711h32M656 711h64M336 712h32M656 712h64M336 713h32M656 713h64M336 714h32M656 714h64M336 715h32M656 715h64M336 716h32M656 716h64M336 717h32M656 717h64M336 718h32M656 718h64M336 719h32M656 719h64M336 720h48M656 720h64M336 721h48M656 721h64M336 722h48M656 722h64M336 723h48M656 723h64M336 724h48M656 724h64M336 725h48M656 725h64M336 726h48M656 726h64M336 727h48M656 727h64M336 728h48M656 728h64M336 729h48M656 729h64M336 730h48M656 730h64M336 731h48M656 731h64M336 732h48M656 732h64M336 733h48M656 733h64M336 734h48M656 734h64M336 735h48M656 735h64M336 736h48M656 736h64M336 737h48M656 737h64M336 738h48M656 738h64M336 739h48M656 739h64M336 740h48M656 740h64M336 741h48M656 741h64M336 742h48M656 742h64M336 743h48M656 743h64M336 744h48M656 744h64M336 745h48M656 745h64M336 746h48M656 746h64M336 747h48M656 747h64M336 748h48M656 748h64M336 749h48M656 749h64M336 750h48M656 750h64M336 751h48M656 751h64M304 752h80M656 752h80M304 753h80M656 753h80M304 754h80M656 754h80M304 755h80M656 755h80M304 756h80M656 756h80M304 757h80M656 757h80M304 758h80M656 758h80M304 759h80M656 759h80M304 760h80M656 760h80M304 761h80M656 761h80M304 762h80M656 762h80M304 763h80M656 763h80M304 764h80M656 764h80M304 765h80M656 765h80M304 766h80M656 766h80M304 767h80M656 767h80M304 768h80M656 768h64M304 769h80M656 769h64M304 770h80M656 770h64M304 771h80M656 771h64M304 772h80M656 772h64M304 773h80M656 773h64M304 774h80M656 774h64M304 775h80M656 775h64M304 776h80M656 776h64M304 777h80M656 777h64M304 778h80M656 778h64M304 779h80M656 779h64M304 780h80M656 780h64M304 781h80M656 781h64M304 782h80M656 782h64M304 783h80M656 783h64M288 784h96M672 784h64M288 785h96M672 785h64M288 786h96M672 786h64M288 787h96M672 787h64M288 788h96M672 788h64M288 789h96M672 789h64M288 790h96M672 790h64M288 791h96M672 791h64M288 792h96M672 792h64M288 793h96M672 793h64M288 794h96M672 794h64M288 795h96M672 795h64M288 796h96M672 796h64M288 797h96M672 797h64M288 798h96M672 798h64M288 799h96M672 799h64M288 800h96M656 800h80M288 801h96M656 801h80M288 802h96M656 802h80M288 803h96M656 803h80M288 804h96M656 804h80M288 805h96M656 805h80M288 806h96M656 806h80M288 807h96M656 807h80M288 808h96M656 808h80M288 809h96M656 809h80M288 810h96M656 810h80M288 811h96M656 811h80M288 812h96M656 812h80M288 813h96M656 813h80M288 814h96M656 814h80M288 815h96M656 815h80M288 816h80M672 816h64M288 817h80M672 817h64M288 818h80M672 818h64M288 819h80M672 819h64M288 820h80M672 820h64M288 821h80M672 821h64M288 822h80M672 822h64M288 823h80M672 823h64M288 824h80M672 824h64M288 825h80M672 825h64M288 826h80M672 826h64M288 827h80M672 827h64M288 828h80M672 828h64M288 829h80M672 829h64M288 830h80M672 830h64M288 831h80M672 831h64M320 832h32M672 832h32M320 833h32M672 833h32M320 834h32M672 834h32M320 835h32M672 835h32M320 836h32M672 836h32M320 837h32M672 837h32M320 838h32M672 838h32M320 839h32M672 839h32M320 840h32M672 840h32M320 841h32M672 841h32M320 842h32M672 842h32M320 843h32M672 843h32M320 844h32M672 844h32M320 845h32M672 845h32M320 846h32M672 846h32M320 847h32M672 847h32" />
<path stroke="#fee7d7" d="M352 624h32M464 624h96M640 624h32M352 625h32M464 625h96M640 625h32M352 626h32M464 626h96M640 626h32M352 627h32M464 627h96M640 627h32M352 628h32M464 628h96M640 628h32M352 629h32M464 629h96M640 629h32M352 630h32M464 630h96M640 630h32M352 631h32M464 631h96M640 631h32M352 632h32M464 632h96M640 632h32M352 633h32M464 633h96M640 633h32M352 634h32M464 634h96M640 634h32M352 635h32M464 635h96M640 635h32M352 636h32M464 636h96M640 636h32M352 637h32M464 637h96M640 637h32M352 638h32M464 638h96M640 638h32M352 639h32M464 639h96M640 639h32M288 640h32M352 640h16M464 640h96M656 640h16M704 640h32M288 641h32M352 641h16M464 641h96M656 641h16M704 641h32M288 642h32M352 642h16M464 642h96M656 642h16M704 642h32M288 643h32M352 643h16M464 643h96M656 643h16M704 643h32M288 644h32M352 644h16M464 644h96M656 644h16M704 644h32M288 645h32M352 645h16M464 645h96M656 645h16M704 645h32M288 646h32M352 646h16M464 646h96M656 646h16M704 646h32M288 647h32M352 647h16M464 647h96M656 647h16M704 647h32M288 648h32M352 648h16M464 648h96M656 648h16M704 648h32M288 649h32M352 649h16M464 649h96M656 649h16M704 649h32M288 650h32M352 650h16M464 650h96M656 650h16M704 650h32M288 651h32M352 651h16M464 651h96M656 651h16M704 651h32M288 652h32M352 652h16M464 652h96M656 652h16M704 652h32M288 653h32M352 653h16M464 653h96M656 653h16M704 653h32M288 654h32M352 654h16M464 654h96M656 654h16M704 654h32M288 655h32M352 655h16M464 655h96M656 655h16M704 655h32M288 656h16M352 656h32M464 656h96M640 656h32M720 656h16M288 657h16M352 657h32M464 657h96M640 657h32M720 657h16M288 658h16M352 658h32M464 658h96M640 658h32M720 658h16M288 659h16M352 659h32M464 659h96M640 659h32M720 659h16M288 660h16M352 660h32M464 660h96M640 660h32M720 660h16M288 661h16M352 661h32M464 661h96M640 661h32M720 661h16M288 662h16M352 662h32M464 662h96M640 662h32M720 662h16M288 663h16M352 663h32M464 663h96M640 663h32M720 663h16M288 664h16M352 664h32M464 664h96M640 664h32M720 664h16M288 665h16M352 665h32M464 665h96M640 665h32M720 665h16M288 666h16M352 666h32M464 666h96M640 666h32M720 666h16M288 667h16M352 667h32M464 667h96M640 667h32M720 667h16M288 668h16M352 668h32M464 668h96M640 668h32M720 668h16M288 669h16M352 669h32M464 669h96M640 669h32M720 669h16M288 670h16M352 670h32M464 670h96M640 670h32M720 670h16M288 671h16M352 671h32M464 671h96M640 671h32M720 671h16M288 672h16M352 672h32M464 672h32M528 672h32M640 672h32M720 672h16M288 673h16M352 673h32M464 673h32M528 673h32M640 673h32M720 673h16M288 674h16M352 674h32M464 674h32M528 674h32M640 674h32M720 674h16M288 675h16M352 675h32M464 675h32M528 675h32M640 675h32M720 675h16M288 676h16M352 676h32M464 676h32M528 676h32M640 676h32M720 676h16M288 677h16M352 677h32M464 677h32M528 677h32M640 677h32M720 677h16M288 678h16M352 678h32M464 678h32M528 678h32M640 678h32M720 678h16M288 679h16M352 679h32M464 679h32M528 679h32M640 679h32M720 679h16M288 680h16M352 680h32M464 680h32M528 680h32M640 680h32M720 680h16M288 681h16M352 681h32M464 681h32M528 681h32M640 681h32M720 681h16M288 682h16M352 682h32M464 682h32M528 682h32M640 682h32M720 682h16M288 683h16M352 683h32M464 683h32M528 683h32M640 683h32M720 683h16M288 684h16M352 684h32M464 684h32M528 684h32M640 684h32M720 684h16M288 685h16M352 685h32M464 685h32M528 685h32M640 685h32M720 685h16M288 686h16M352 686h32M464 686h32M528 686h32M640 686h32M720 686h16M288 687h16M352 687h32M464 687h32M528 687h32M640 687h32M720 687h16M288 688h32M352 688h320M704 688h32M288 689h32M352 689h320M704 689h32M288 690h32M352 690h320M704 690h32M288 691h32M352 691h320M704 691h32M288 692h32M352 692h320M704 692h32M288 693h32M352 693h320M704 693h32M288 694h32M352 694h320M704 694h32M288 695h32M352 695h320M704 695h32M288 696h32M352 696h320M704 696h32M288 697h32M352 697h320M704 697h32M288 698h32M352 698h320M704 698h32M288 699h32M352 699h320M704 699h32M288 700h32M352 700h320M704 700h32M288 701h32M352 701h320M704 701h32M288 702h32M352 702h320M704 702h32M288 703h32M352 703h320M704 703h32M368 704h288M368 705h288M368 706h288M368 707h288M368 708h288M368 709h288M368 710h288M368 711h288M368 712h288M368 713h288M368 714h288M368 715h288M368 716h288M368 717h288M368 718h288M368 719h288M384 720h16M464 720h112M384 721h16M464 721h112M384 722h16M464 722h112M384 723h16M464 723h112M384 724h16M464 724h112M384 725h16M464 725h112M384 726h16M464 726h112M384 727h16M464 727h112M384 728h16M464 728h112M384 729h16M464 729h112M384 730h16M464 730h112M384 731h16M464 731h112M384 732h16M464 732h112M384 733h16M464 733h112M384 734h16M464 734h112M384 735h16M464 735h112M384 736h16M464 736h112M384 737h16M464 737h112M384 738h16M464 738h112M384 739h16M464 739h112M384 740h16M464 740h112M384 741h16M464 741h112M384 742h16M464 742h112M384 743h16M464 743h112M384 744h16M464 744h112M384 745h16M464 745h112M384 746h16M464 746h112M384 747h16M464 747h112M384 748h16M464 748h112M384 749h16M464 749h112M384 750h16M464 750h112M384 751h16M464 751h112M464 752h112M464 753h112M464 754h112M464 755h112M464 756h112M464 757h112M464 758h112M464 759h112M464 760h112M464 761h112M464 762h112M464 763h112M464 764h112M464 765h112M464 766h112M464 767h112M464 784h64M464 785h64M464 786h64M464 787h64M464 788h64M464 789h64M464 790h64M464 791h64M464 792h64M464 793h64M464 794h64M464 795h64M464 796h64M464 797h64M464 798h64M464 799h64M464 800h64M464 801h64M464 802h64M464 803h64M464 804h64M464 805h64M464 806h64M464 807h64M464 808h64M464 809h64M464 810h64M464 811h64M464 812h64M464 813h64M464 814h64M464 815h64M480 816h48M640 816h16M480 817h48M640 817h16M480 818h48M640 818h16M480 819h48M640 819h16M480 820h48M640 820h16M480 821h48M640 821h16M480 822h48M640 822h16M480 823h48M640 823h16M480 824h48M640 824h16M480 825h48M640 825h16M480 826h48M640 826h16M480 827h48M640 827h16M480 828h48M640 828h16M480 829h48M640 829h16M480 830h48M640 830h16M480 831h48M640 831h16M352 832h16M640 832h16M352 833h16M640 833h16M352 834h16M640 834h16M352 835h16M640 835h16M352 836h16M640 836h16M352 837h16M640 837h16M352 838h16M640 838h16M352 839h16M640 839h16M352 840h16M640 840h16M352 841h16M640 841h16M352 842h16M640 842h16M352 843h16M640 843h16M352 844h16M640 844h16M352 845h16M640 845h16M352 846h16M640 846h16M352 847h16M640 847h16" />
<path stroke="#9b5f35" d="M400 640h64M560 640h64M400 641h64M560 641h64M400 642h64M560 642h64M400 643h64M560 643h64M400 644h64M560 644h64M400 645h64M560 645h64M400 646h64M560 646h64M400 647h64M560 647h64M400 648h64M560 648h64M400 649h64M560 649h64M400 650h64M560 650h64M400 651h64M560 651h64M400 652h64M560 652h64M400 653h64M560 653h64M400 654h64M560 654h64M400 655h64M560 655h64M400 656h64M560 656h64M400 657h64M560 657h64M400 658h64M560 658h64M400 659h64M560 659h64M400 660h64M560 660h64M400 661h64M560 661h64M400 662h64M560 662h64M400 663h64M560 663h64M400 664h64M560 664h64M400 665h64M560 665h64M400 666h64M560 666h64M400 667h64M560 667h64M400 668h64M560 668h64M400 669h64M560 669h64M400 670h64M560 670h64M400 671h64M560 671h64" />
<path stroke="#f8c9a8" d="M304 656h16M704 656h16M304 657h16M704 657h16M304 658h16M704 658h16M304 659h16M704 659h16M304 660h16M704 660h16M304 661h16M704 661h16M304 662h16M704 662h16M304 663h16M704 663h16M304 664h16M704 664h16M304 665h16M704 665h16M304 666h16M704 666h16M304 667h16M704 667h16M304 668h16M704 668h16M304 669h16M704 669h16M304 670h16M704 670h16M304 671h16M704 671h16M304 672h16M496 672h32M704 672h16M304 673h16M496 673h32M704 673h16M304 674h16M496 674h32M704 674h16M304 675h16M496 675h32M704 675h16M304 676h16M496 676h32M704 676h16M304 677h16M496 677h32M704 677h16M304 678h16M496 678h32M704 678h16M304 679h16M496 679h32M704 679h16M304 680h16M496 680h32M704 680h16M304 681h16M496 681h32M704 681h16M304 682h16M496 682h32M704 682h16M304 683h16M496 683h32M704 683h16M304 684h16M496 684h32M704 684h16M304 685h16M496 685h32M704 685h16M304 686h16M496 686h32M704 686h16M304 687h16M496 687h32M704 687h16M464 768h96M464 769h96M464 770h96M464 771h96M464 772h96M464 773h96M464 774h96M464 775h96M464 776h96M464 777h96M464 778h96M464 779h96M464 780h96M464 781h96M464 782h96M464 783h96M528 784h32M528 785h32M528 786h32M528 787h32M528 788h32M528 789h32M528 790h32M528 791h32M528 792h32M528 793h32M528 794h32M528 795h32M528 796h32M528 797h32M528 798h32M528 799h32M528 800h32M640 800h16M528 801h32M640 801h16M528 802h32M640 802h16M528 803h32M640 803h16M528 804h32M640 804h16M528 805h32M640 805h16M528 806h32M640 806h16M528 807h32M640 807h16M528 808h32M640 808h16M528 809h32M640 809h16M528 810h32M640 810h16M528 811h32M640 811h16M528 812h32M640 812h16M528 813h32M640 813h16M528 814h32M640 814h16M528 815h32M640 815h16M368 816h16M528 816h16M656 816h16M368 817h16M528 817h16M656 817h16M368 818h16M528 818h16M656 818h16M368 819h16M528 819h16M656 819h16M368 820h16M528 820h16M656 820h16M368 821h16M528 821h16M656 821h16M368 822h16M528 822h16M656 822h16M368 823h16M528 823h16M656 823h16M368 824h16M528 824h16M656 824h16M368 825h16M528 825h16M656 825h16M368 826h16M528 826h16M656 826h16M368 827h16M528 827h16M656 827h16M368 828h16M528 828h16M656 828h16M368 829h16M528 829h16M656 829h16M368 830h16M528 830h16M656 830h16M368 831h16M528 831h16M656 831h16M368 832h16M656 832h16M368 833h16M656 833h16M368 834h16M656 834h16M368 835h16M656 835h16M368 836h16M656 836h16M368 837h16M656 837h16M368 838h16M656 838h16M368 839h16M656 839h16M368 840h16M656 840h16M368 841h16M656 841h16M368 842h16M656 842h16M368 843h16M656 843h16M368 844h16M656 844h16M368 845h16M656 845h16M368 846h16M656 846h16M368 847h16M656 847h16" />
<path stroke="#da9464" d="M400 672h64M560 672h64M400 673h64M560 673h64M400 674h64M560 674h64M400 675h64M560 675h64M400 676h64M560 676h64M400 677h64M560 677h64M400 678h64M560 678h64M400 679h64M560 679h64M400 680h64M560 680h64M400 681h64M560 681h64M400 682h64M560 682h64M400 683h64M560 683h64M400 684h64M560 684h64M400 685h64M560 685h64M400 686h64M560 686h64M400 687h64M560 687h64" />
</svg>