<svg width="31" height="27" viewBox="0 0 31 27" fill="none" xmlns="http://www.w3.org/2000/svg">
<path d="M3.53439e-05 15.4286L3.56811e-05 11.5714L23.1429 11.5714L23.1429 7.71429L27 7.71429L27 11.5714L30.8572 11.5714L30.8572 15.4286L27 15.4286L27 19.2857L23.1429 19.2857L23.1429 15.4286L3.53439e-05 15.4286ZM19.2857 23.1429L23.1429 23.1429L23.1429 19.2857L19.2857 19.2857L19.2857 23.1429ZM19.2857 23.1429L15.4286 23.1429L15.4286 27L19.2857 27L19.2857 23.1429ZM19.2858 3.85714L23.1429 3.85714L23.1429 7.71429L19.2858 7.71429L19.2858 3.85714ZM19.2858 3.85714L15.4286 3.85714L15.4286 -1.56716e-07L19.2858 1.80486e-07L19.2858 3.85714Z" fill="black"/>
</svg>
