<svg width="508" height="320" viewBox="0 0 508 320" fill="none" xmlns="http://www.w3.org/2000/svg">
<rect y="260" width="100" height="100" rx="50" transform="rotate(-90 0 260)" fill="#EB8B8B"/>
<rect y="151" width="100" height="100" rx="50" transform="rotate(-90 0 151)" fill="#F8CBC5"/>
<rect x="100" y="320" width="100" height="100" rx="50" transform="rotate(-90 100 320)" fill="#F8C468"/>
<path d="M250 260C222.386 260 200 237.614 200 210C200 182.386 222.386 160 250 160C277.614 160 300 182.386 300 210C300 237.614 277.614 260 250 260Z" fill="#6BCC69"/>
<rect x="304" y="100" width="100" height="100" rx="50" transform="rotate(-90 304 100)" fill="#6DBDE5"/>
<rect x="100" y="100" width="100" height="100" rx="50" transform="rotate(-90 100 100)" fill="#FFEBA2"/>
<rect x="170.033" y="36.3786" width="21" height="16" rx="8" transform="rotate(-124.959 170.033 36.3786)" fill="white"/>
<rect x="175" y="48" width="12" height="12" rx="6" transform="rotate(-90 175 48)" fill="white"/>
<rect x="70.0327" y="90.3786" width="21" height="16" rx="8" transform="rotate(-124.959 70.0327 90.3786)" fill="white"/>
<rect x="75" y="102" width="12" height="12" rx="6" transform="rotate(-90 75 102)" fill="white"/>
<rect x="70.0327" y="198.379" width="21" height="16" rx="8" transform="rotate(-124.959 70.0327 198.379)" fill="white"/>
<rect x="75" y="210" width="12" height="12" rx="6" transform="rotate(-90 75 210)" fill="white"/>
<rect x="170.033" y="258.379" width="21" height="16" rx="8" transform="rotate(-124.959 170.033 258.379)" fill="white"/>
<rect x="175" y="270" width="12" height="12" rx="6" transform="rotate(-90 175 270)" fill="white"/>
<rect x="269.033" y="198.379" width="21" height="16" rx="8" transform="rotate(-124.959 269.033 198.379)" fill="white"/>
<rect x="274" y="210" width="12" height="12" rx="6" transform="rotate(-90 274 210)" fill="white"/>
<rect x="200" y="151" width="100" height="100" rx="50" transform="rotate(-90 200 151)" fill="#C1EB8B"/>
<rect x="304" y="320" width="100" height="100" rx="50" transform="rotate(-90 304 320)" fill="#2EA1DA"/>
<rect x="408" y="151" width="100" height="100" rx="50" transform="rotate(-90 408 151)" fill="#E3BFFF"/>
<rect x="269.033" y="90.3786" width="21" height="16" rx="8" transform="rotate(-124.959 269.033 90.3786)" fill="white"/>
<rect x="274" y="102" width="12" height="12" rx="6" transform="rotate(-90 274 102)" fill="white"/>
<rect x="372.033" y="39.3786" width="21" height="16" rx="8" transform="rotate(-124.959 372.033 39.3786)" fill="white"/>
<rect x="377" y="51" width="12" height="12" rx="6" transform="rotate(-90 377 51)" fill="white"/>
<rect x="408" y="260" width="100" height="100" rx="50" transform="rotate(-90 408 260)" fill="#D197FF"/>
<rect x="304" y="210" width="100" height="100" rx="50" transform="rotate(-90 304 210)" fill="#453333"/>
<rect x="100.001" y="210" width="100" height="100" rx="50" transform="rotate(-90 100.001 210)" fill="#FCF5E5"/>
<rect x="372.033" y="147.379" width="21" height="16" rx="8" transform="rotate(-124.959 372.033 147.379)" fill="white"/>
<rect x="377" y="159" width="12" height="12" rx="6" transform="rotate(-90 377 159)" fill="white"/>
<rect x="372.033" y="258.379" width="21" height="16" rx="8" transform="rotate(-124.959 372.033 258.379)" fill="white"/>
<rect x="377" y="270" width="12" height="12" rx="6" transform="rotate(-90 377 270)" fill="white"/>
<rect x="470.033" y="198.379" width="21" height="16" rx="8" transform="rotate(-124.959 470.033 198.379)" fill="white"/>
<rect x="475" y="210" width="12" height="12" rx="6" transform="rotate(-90 475 210)" fill="white"/>
<rect x="470.033" y="90.3786" width="21" height="16" rx="8" transform="rotate(-124.959 470.033 90.3786)" fill="white"/>
<rect x="475" y="102" width="12" height="12" rx="6" transform="rotate(-90 475 102)" fill="white"/>
<rect x="170.033" y="147.379" width="21" height="16" rx="8" transform="rotate(-124.959 170.033 147.379)" fill="white"/>
<rect x="175" y="159" width="12" height="12" rx="6" transform="rotate(-90 175 159)" fill="white"/>
</svg>
