<?xml version="1.0" encoding="UTF-8"?>
<svg id="Layer_2" data-name="Layer 2" xmlns="http://www.w3.org/2000/svg" viewBox="0 0 79.47 79.47">
  <defs>
    <style>
      .cls-1, .cls-2, .cls-3, .cls-4, .cls-5, .cls-6, .cls-7 {
        stroke-linecap: round;
        stroke-linejoin: round;
      }

      .cls-1, .cls-2, .cls-3, .cls-8, .cls-6 {
        stroke: #453333;
      }

      .cls-1, .cls-3, .cls-4 {
        fill: #ffeba2;
      }

      .cls-2 {
        fill: #fcf5e5;
      }

      .cls-2, .cls-3, .cls-4, .cls-5, .cls-8, .cls-7 {
        stroke-width: 1.81px;
      }

      .cls-4, .cls-5 {
        stroke: #f8c468;
      }

      .cls-9 {
        fill: #453333;
      }

      .cls-5, .cls-8, .cls-6 {
        fill: none;
      }

      .cls-8 {
        stroke-miterlimit: 10;
      }

      .cls-6 {
        stroke-width: 2.16px;
      }

      .cls-7 {
        fill: #6dbde5;
        stroke: #2ea1da;
      }
    </style>
  </defs>
  <g id="Layer_1-2" data-name="Layer 1">
    <g>
      <g>
        <g>
          <path class="cls-3" d="m41.57,23.41l.16-2.56s7.55-2.67,10.44,11.53l5.25,5.76,2.19,6.79,1.08,8.74,1.13,7.43,2.16,3.98,2.53,2.13s13.94-11.18,11.84-32.01S56.96,4.21,51.16,2.9,31.87-3.08,14.3,10.75c0,0-7.84,6.83-10.43,14.72"/>
          <g>
            <path class="cls-3" d="m26.28,23.41c-1.1,1.65-2.41,2.61-3.83,2.61s-2.72-.96-3.82-2.6"/>
            <path class="cls-3" d="m26.28,23.42c1.1,1.64,2.41,2.6,3.82,2.6s2.73-.96,3.83-2.61"/>
            <path class="cls-3" d="m33.93,23.42c1.1,1.64,2.41,2.6,3.82,2.6s2.73-.96,3.83-2.61"/>
            <path class="cls-3" d="m18.63,23.41c-1.1,1.65-2.41,2.61-3.83,2.61s-2.72-.96-3.82-2.6"/>
            <path class="cls-2" d="m10.99,23.41c-1.1,1.65-2.41,2.61-3.83,2.61s-1.67.34-2.77-1.31l1.36,1.31"/>
          </g>
        </g>
        <circle class="cls-8" cx="39.74" cy="39.79" r="38.61"/>
        <g>
          <path class="cls-4" d="m40.26,64.41c-.69-.31-1.36-.67-1.98-1.09"/>
          <path class="cls-5" d="m38.27,63.31c-2.07,1.39-4.55,2.2-7.21,2.2s-5.12-.81-7.19-2.2"/>
          <path class="cls-3" d="m23.87,63.31c-2.07,1.39-4.55,2.2-7.21,2.2s-5.12-.81-7.19-2.2c0,0,3.84,5.9,9.16,8.81s8.17,3.91,9.68,4.55,1.79-.48,1.79-.48c0,0,1.37-3.81,2.89-5.58s3.1-3.16,5.92-5.09,1.34-1.11,1.34-1.11l-1.98-1.1s-1.87,1.41-3.93,1.77-5.1.67-7.11-.15-3.36-1.62-3.36-1.62Z"/>
        </g>
        <path class="cls-1" d="m7.67,43.38s-2.95-.48,0-4.02c0,0,2.51,3.68,0,4.02Z"/>
        <path class="cls-1" d="m12.19,38.03s-3.65-.67,0-5.64c0,0,3.11,5.17,0,5.64Z"/>
        <g>
          <path class="cls-9" d="m15.81,19.79c-.13.14-.25.29-.38.44-1-.85-1.99-1.7-2.99-2.55.28-.33.57-.65.86-.97.96.89,1.93,1.77,2.89,2.66.26-.28.52-.56.79-.83-.93-.92-1.86-1.84-2.8-2.76.3-.3.6-.6.91-.89.9.95,1.8,1.91,2.7,2.86-.14.13-.27.26-.41.39.15.16.31.31.46.47-.53.52-1.04,1.06-1.54,1.62-.16-.14-.33-.29-.49-.43Z"/>
          <path class="cls-9" d="m16.98,13.22c.14.17.28.34.41.51.16-.13.32-.26.48-.38.27.34.54.69.81,1.03.15-.12.31-.24.46-.36-.4-.52-.79-1.04-1.19-1.56.33-.25.66-.5,1-.73.88,1.25,1.77,2.5,2.65,3.75-.29.21-.58.42-.87.64l-.4-.52c-.15.11-.29.22-.44.34-.14-.17-.27-.34-.41-.51-.15.12-.29.24-.44.36-.28-.34-.55-.68-.83-1.02-.15.12-.3.25-.45.38.56.67,1.13,1.33,1.69,2-.28.24-.55.48-.82.72-1.03-1.13-2.06-2.26-3.09-3.39.47-.43.94-.84,1.42-1.23Z"/>
          <path class="cls-9" d="m21.53,10.05c.11.19.22.38.33.57.17-.1.35-.2.52-.3.11.19.21.38.32.57.17-.1.34-.19.51-.28.31.58.62,1.15.93,1.73-.16.09-.32.18-.48.27.11.19.21.38.32.57-.16.09-.31.18-.47.27.11.19.22.38.33.57-.61.36-1.21.74-1.8,1.14-.86-1.26-1.72-2.53-2.58-3.79.68-.46,1.37-.9,2.07-1.31Zm-.18.87c-.17.1-.34.21-.51.32.58.92,1.17,1.85,1.75,2.77.15-.1.31-.19.46-.29-.11-.19-.23-.37-.34-.56.16-.1.32-.19.48-.28-.33-.57-.66-1.13-.99-1.7-.17.1-.34.2-.5.3-.11-.19-.23-.37-.34-.56Z"/>
          <path class="cls-9" d="m25.24,13.24c-.7-1.36-1.41-2.72-2.11-4.07,1.08-.56,2.18-1.06,3.29-1.5.08.2.16.41.24.61-.73.29-1.46.6-2.17.94.19.39.38.79.56,1.18.52-.24,1.04-.48,1.56-.69.08.2.17.4.25.61-.51.21-1.03.44-1.53.68.19.39.38.79.56,1.18.65-.31,1.3-.59,1.97-.85.08.2.16.41.24.61-.97.38-1.93.82-2.87,1.3Z"/>
          <path class="cls-9" d="m30,7.16c.19-.05.38-.1.57-.15.11.42.22.84.34,1.27-.18.05-.36.1-.54.15.06.21.12.42.18.63-.18.05-.35.1-.53.15.06.21.13.42.19.63.17-.05.35-.1.52-.15.06.21.12.42.18.63.17-.05.34-.09.51-.14.06.21.11.42.17.63-.33.09-.67.18-1,.28-.06-.21-.13-.42-.19-.63-.17.05-.34.1-.51.16-.07-.21-.13-.42-.2-.62-.17.05-.34.11-.52.17.14.41.28.83.42,1.24-.33.11-.66.23-.98.35-.54-1.43-1.08-2.86-1.61-4.29.94-.35,1.88-.66,2.84-.93.06.21.12.42.18.63Zm-.19,1.42c-.13-.42-.25-.84-.38-1.25-.37.11-.75.23-1.12.36.14.41.28.83.42,1.24.36-.12.72-.23,1.08-.34Z"/>
          <path class="cls-9" d="m35.13,10.09c-.19-1.3-.37-2.59-.56-3.89-.38.05-.77.12-1.15.18-.04-.22-.08-.43-.11-.65,1.17-.21,2.35-.35,3.53-.44.02.22.03.44.05.65-.39.03-.77.06-1.16.11.14,1.3.28,2.61.42,3.91-.34.04-.68.08-1.03.13Z"/>
          <path class="cls-9" d="m39.76,9.78c0-.66.01-1.31.02-1.97-.37,0-.73,0-1.1,0,.02.65.03,1.31.05,1.96-.34,0-.69.02-1.03.04-.09-1.53-.18-3.05-.27-4.58.39-.02.79-.04,1.18-.05.02.65.03,1.31.05,1.96.37,0,.75-.01,1.12,0,0-.66.01-1.31.02-1.97.4,0,.79.01,1.19.03-.06,1.53-.13,3.05-.19,4.58-.34-.01-.69-.02-1.03-.03Z"/>
          <path class="cls-9" d="m41.31,9.84c.09-1.53.18-3.05.27-4.58,1.18.07,2.37.2,3.54.38-.03.22-.07.43-.1.65-.77-.12-1.54-.22-2.31-.29-.04.43-.08.87-.12,1.3.56.05,1.12.12,1.67.19-.03.22-.06.43-.09.65-.54-.08-1.09-.14-1.64-.19-.04.43-.08.87-.12,1.3.7.06,1.4.15,2.1.26-.03.22-.07.43-.1.65-1.02-.16-2.05-.27-3.08-.33Z"/>
          <path class="cls-9" d="m47.77,9.54c-.17-.05-.35-.09-.52-.13.26-1.06.52-2.12.78-3.18.39.09.77.2,1.15.3-.18.63-.36,1.26-.53,1.89.18.05.36.1.54.16.13-.42.25-.84.38-1.25.37.11.75.23,1.12.36-.14.41-.28.83-.42,1.24.18.06.36.12.53.18.22-.62.44-1.23.66-1.85.38.13.75.27,1.12.42-.4,1.02-.8,2.03-1.2,3.05-.17-.07-.34-.13-.51-.2-.15.41-.31.82-.46,1.23-.33-.12-.65-.24-.98-.35.14-.41.28-.83.42-1.24-.34-.12-.69-.23-1.03-.33-.13.42-.25.84-.38,1.25-.33-.1-.67-.19-1-.28.11-.42.22-.84.34-1.27Z"/>
          <path class="cls-9" d="m53.98,8.98c.09-.2.18-.4.27-.6.37.17.73.34,1.09.52-.1.2-.19.39-.29.59.18.09.35.18.53.27-.2.39-.4.78-.6,1.16.17.09.34.18.51.27-.42.77-.83,1.54-1.25,2.31-.31-.17-.62-.33-.94-.49.19-.39.39-.78.58-1.17-.33-.16-.66-.32-.99-.47-.18.4-.36.8-.54,1.19-.32-.14-.64-.28-.96-.42.33-.81.67-1.61,1-2.42.18.07.35.15.52.22.17-.4.35-.8.52-1.2.18.08.36.16.54.24Zm-.81,1.79c.34.15.68.31,1.01.48.19-.39.39-.78.58-1.17-.35-.17-.7-.34-1.05-.5-.18.4-.36.8-.54,1.19Z"/>
          <path class="cls-9" d="m55.62,14.28c.23-.37.45-.75.68-1.12-.16-.1-.32-.19-.48-.28.22-.38.44-.75.66-1.13-.17-.1-.33-.19-.5-.29.32-.57.64-1.14.96-1.71.35.2.7.4,1.05.62-.34.56-.68,1.12-1.02,1.68.33.2.65.41.98.62.36-.55.72-1.1,1.08-1.64.34.23.68.46,1.02.69-.38.54-.76,1.07-1.13,1.61-.16-.11-.32-.22-.48-.33-.25.36-.49.72-.74,1.08-.15-.11-.31-.21-.46-.31-.24.37-.48.73-.72,1.1-.3-.2-.6-.39-.9-.57Z"/>
          <path class="cls-9" d="m57.84,15.78c.9-1.23,1.81-2.47,2.71-3.7,1,.73,1.96,1.53,2.9,2.38-.15.16-.29.32-.44.48-.61-.56-1.24-1.09-1.87-1.59-.27.34-.54.69-.81,1.03.46.37.92.74,1.36,1.14-.14.16-.29.33-.43.49-.44-.39-.88-.76-1.33-1.11-.27.34-.54.69-.81,1.03.58.46,1.15.94,1.7,1.44-.15.16-.29.32-.44.48-.81-.74-1.65-1.43-2.52-2.07Z"/>
          <path class="cls-9" d="m61.63,18.14c-.13-.13-.27-.26-.41-.39.15-.16.3-.32.45-.48.28.26.55.53.82.81-.16.15-.31.31-.47.46.27.27.53.55.79.83.32-.3.64-.59.96-.89-.4-.44-.82-.87-1.24-1.28.15-.16.31-.31.46-.47-.14-.14-.29-.28-.43-.42.3-.32.6-.64.9-.95.15.14.3.29.45.43.15-.16.31-.31.46-.47.61.59,1.19,1.21,1.77,1.86-.16.14-.33.29-.49.43.14.16.28.32.42.48-.17.14-.33.28-.5.43-.27-.32-.55-.63-.83-.93.16-.15.32-.3.48-.44-.28-.31-.57-.61-.87-.91-.31.31-.62.61-.93.92.42.43.84.87,1.24,1.33-.16.14-.33.29-.49.43.13.15.26.3.39.45-.33.28-.66.57-1,.85-.13-.15-.25-.29-.38-.44-.16.14-.33.29-.49.43-.5-.56-1.01-1.1-1.54-1.62.15-.16.31-.31.46-.47Z"/>
        </g>
        <g>
          <path class="cls-7" d="m48.99,52.29s-2.1,9.1-10.07,13.24c-8.36,4.34-9.4,11.79-9.1,11.79l4.52.7c2.66.4,5.1.68,7.77.37l2.23-.18c1.85-.15,3.69-.49,5.47-1.01.82-.24,1.59-.47,2.36-.7,2.22-.69,4.34-1.67,6.32-2.88l.73-.45c2.13-1.26,2.72-1.71,4.14-2.85l2.81-2.21.15-.11c.63-.47.67-1.41.06-1.9-4.07-3.27-4.66-8.96-4.66-8.96-.84-8.38-2.04-15.5-4.3-18.99-1.43-2.21-5.9-6.46-11.04-6.6-3.69-.1-10.99.21-11.55.29-12.46,1.69-13.16,16.24-13.16,16.24,2.5-.87,4.46-1.94,8.56-1.48,7.61.86,5.47-5.98,7.64-5.74"/>
          <path class="cls-7" d="m49.7,40.55s3.74.64,2,15.34c-.84-1.05-1.61-2.86-2.71-3.61-2.53-1.72-4.44-2.19-6.3-2.85-6.74-2.42-2.48-8.79-4.83-8.58"/>
        </g>
      </g>
      <circle class="cls-6" cx="39.74" cy="39.74" r="38.66"/>
    </g>
  </g>
</svg>