<svg width="600" height="148" viewBox="0 0 600 148" fill="none" xmlns="http://www.w3.org/2000/svg">
<rect x="588.5" y="-172.5" width="9" height="318" stroke="black" stroke-width="5"/>
<rect x="2.5" y="-172.5" width="9" height="318" stroke="black" stroke-width="5"/>
<rect x="2.5" y="50.5" width="595" height="95" fill="#FFFCF7" stroke="black" stroke-width="5"/>
<path d="M115 104H111V84H115V104ZM127 96H123V88H127V96ZM139 104H135V84H139V104ZM119 112H115V104H119V112ZM135 112H131V104H135V112ZM123 104H119V96H123V104ZM131 104H127V96H131V104ZM158.992 96H146.992V92H158.992V96ZM146.992 104V108H142.992V96H146.992V100H158.992V96H162.992V104H146.992ZM162.992 112H146.992V108H162.992V112ZM171.004 112H167.004V84H171.004V112ZM179.02 108H175.02V96H179.02V108ZM195.02 96H179.02V92H195.02V96ZM195.02 112H179.02V108H195.02V112ZM203.031 108H199.031V96H203.031V108ZM215.031 96H203.031V92H215.031V96ZM219.031 108H215.031V96H219.031V108ZM215.031 112H203.031V108H215.031V112ZM239.043 112H235.043V96H239.043V112ZM235.043 92V96H227.043V112H223.043V92H235.043ZM247.043 96H239.043V92H247.043V96ZM251.043 112H247.043V96H251.043V112ZM271.035 96H259.035V92H271.035V96ZM259.035 104V108H255.035V96H259.035V100H271.035V96H275.035V104H259.035ZM275.035 112H259.035V108H275.035V112ZM299.035 92H303.035V96H299.035V108H303.035V112H295.035V96H291.035V92H295.035V84H299.035V92ZM311.031 108H307.031V96H311.031V108ZM323.031 96H311.031V92H323.031V96ZM327.031 108H323.031V96H327.031V108ZM323.031 112H311.031V108H323.031V112ZM335.043 112H331.043V108H335.043V112ZM335.043 96H331.043V92H335.043V96ZM363.047 112H359.047V104H363.047V112ZM359.047 104H355.047V96H359.047V104ZM367.047 104H363.047V96H367.047V104ZM355.047 96H351.047V84H355.047V96ZM371.047 96H367.047V84H371.047V96ZM379.059 112H375.059V92H379.059V112ZM379.059 88H375.059V84H379.059V88ZM399.074 112H383.074V108H399.074V112ZM403.074 108H399.074V104H403.074V108ZM399.074 104H387.074V100H399.074V104ZM387.074 100H383.074V96H387.074V100ZM403.074 96H387.074V92H403.074V96ZM411.086 108H407.086V92H411.086V108ZM427.086 108H423.086V92H427.086V108ZM423.086 112H411.086V108H423.086V112ZM435.098 108H431.098V96H435.098V108ZM447.098 100H443.098V96H447.098V92H451.098V112H447.098V108H443.098V104H447.098V100ZM443.098 112H435.098V108H443.098V112ZM443.098 96H435.098V92H443.098V96ZM459.109 112H455.109V84H459.109V112ZM479.125 112H463.125V108H479.125V112ZM483.125 108H479.125V104H483.125V108ZM479.125 104H467.125V100H479.125V104ZM467.125 100H463.125V96H467.125V100ZM483.125 96H467.125V92H483.125V96Z" fill="black"/>
</svg>
