<svg width="600" height="185" viewBox="0 0 600 185" fill="none" xmlns="http://www.w3.org/2000/svg">
<rect x="588.5" y="-135.5" width="9" height="318" stroke="black" stroke-width="5"/>
<rect x="2.5" y="-135.5" width="9" height="318" stroke="black" stroke-width="5"/>
<rect x="2.5" y="87.5" width="595" height="95" fill="#FFFCF7" stroke="black" stroke-width="5"/>
<path d="M54 139H50V119H54V139ZM66 131H62V123H66V131ZM78 139H74V119H78V139ZM58 147H54V139H58V147ZM74 147H70V139H74V147ZM62 139H58V131H62V139ZM70 139H66V131H70V139ZM97.9922 131H85.9922V127H97.9922V131ZM85.9922 139V143H81.9922V131H85.9922V135H97.9922V131H101.992V139H85.9922ZM101.992 147H85.9922V143H101.992V147ZM110.004 147H106.004V119H110.004V147ZM118.02 143H114.02V131H118.02V143ZM134.02 131H118.02V127H134.02V131ZM134.02 147H118.02V143H134.02V147ZM142.031 143H138.031V131H142.031V143ZM154.031 131H142.031V127H154.031V131ZM158.031 143H154.031V131H158.031V143ZM154.031 147H142.031V143H154.031V147ZM178.043 147H174.043V131H178.043V147ZM174.043 127V131H166.043V147H162.043V127H174.043ZM186.043 131H178.043V127H186.043V131ZM190.043 147H186.043V131H190.043V147ZM210.035 131H198.035V127H210.035V131ZM198.035 139V143H194.035V131H198.035V135H210.035V131H214.035V139H198.035ZM214.035 147H198.035V143H214.035V147ZM238.035 127H242.035V131H238.035V143H242.035V147H234.035V131H230.035V127H234.035V119H238.035V127ZM250.031 143H246.031V131H250.031V143ZM262.031 131H250.031V127H262.031V131ZM266.031 143H262.031V131H266.031V143ZM262.031 147H250.031V143H262.031V147ZM274.043 147H270.043V143H274.043V147ZM274.043 131H270.043V127H274.043V131ZM294.047 143H290.047V123H294.047V143ZM310.047 143H306.047V139H310.047V143ZM310.047 127H306.047V123H310.047V127ZM306.047 147H294.047V143H306.047V147ZM306.047 123H294.047V119H306.047V123ZM318.059 143H314.059V131H318.059V143ZM330.059 131H318.059V127H330.059V131ZM334.059 143H330.059V131H334.059V143ZM330.059 147H318.059V143H330.059V147ZM342.07 147H338.07V119H342.07V147ZM350.086 143H346.086V131H350.086V143ZM362.086 131H350.086V127H362.086V131ZM366.086 143H362.086V131H366.086V143ZM362.086 147H350.086V143H362.086V147ZM374.098 143H370.098V127H374.098V143ZM390.098 143H386.098V127H390.098V143ZM386.098 147H374.098V143H386.098V147ZM406.109 135H402.109V131H406.109V135ZM410.109 131H406.109V127H410.109V131ZM398.109 139V147H394.109V127H398.109V135H402.109V139H398.109ZM446.102 131H442.102V123H446.102V131ZM442.102 119V123H430.102V131H442.102V135H430.102V147H426.102V119H442.102ZM454.113 143H450.113V131H454.113V143ZM466.113 135H462.113V131H466.113V127H470.113V147H466.113V143H462.113V139H466.113V135ZM462.113 147H454.113V143H462.113V147ZM462.113 131H454.113V127H462.113V131ZM478.125 147H474.125V119H478.125V147ZM498.141 131H486.141V127H498.141V131ZM486.141 139V143H482.141V131H486.141V135H498.141V131H502.141V139H486.141ZM502.141 147H486.141V143H502.141V147ZM514.152 127H518.152V131H514.152V143H518.152V147H510.152V131H506.152V127H510.152V119H514.152V127ZM530.148 127H534.148V131H530.148V143H534.148V147H526.148V131H522.148V127H526.148V119H530.148V127ZM554.145 131H542.145V127H554.145V131ZM542.145 139V143H538.145V131H542.145V135H554.145V131H558.145V139H542.145ZM558.145 147H542.145V143H558.145V147Z" fill="black"/>
</svg>
