<svg width="600" height="185" viewBox="0 0 600 185" fill="none" xmlns="http://www.w3.org/2000/svg">
<rect x="588.5" y="-135.5" width="9" height="318" stroke="black" stroke-width="5"/>
<rect x="2.5" y="-135.5" width="9" height="318" stroke="black" stroke-width="5"/>
<rect x="2.5" y="87.5" width="595" height="95" fill="#E3BFFF" stroke="black" stroke-width="5"/>
<path d="M97 141H93V121H97V141ZM109 133H105V125H109V133ZM121 141H117V121H121V141ZM101 149H97V141H101V149ZM117 149H113V141H117V149ZM105 141H101V133H105V141ZM113 141H109V133H113V141ZM140.992 133H128.992V129H140.992V133ZM128.992 141V145H124.992V133H128.992V137H140.992V133H144.992V141H128.992ZM144.992 149H128.992V145H144.992V149ZM153.004 149H149.004V121H153.004V149ZM161.02 145H157.02V133H161.02V145ZM177.02 133H161.02V129H177.02V133ZM177.02 149H161.02V145H177.02V149ZM185.031 145H181.031V133H185.031V145ZM197.031 133H185.031V129H197.031V133ZM201.031 145H197.031V133H201.031V145ZM197.031 149H185.031V145H197.031V149ZM221.043 149H217.043V133H221.043V149ZM217.043 129V133H209.043V149H205.043V129H217.043ZM229.043 133H221.043V129H229.043V133ZM233.043 149H229.043V133H233.043V149ZM253.035 133H241.035V129H253.035V133ZM241.035 141V145H237.035V133H241.035V137H253.035V133H257.035V141H241.035ZM257.035 149H241.035V145H257.035V149ZM281.035 129H285.035V133H281.035V145H285.035V149H277.035V133H273.035V129H277.035V121H281.035V129ZM293.031 145H289.031V133H293.031V145ZM305.031 133H293.031V129H305.031V133ZM309.031 145H305.031V133H309.031V145ZM305.031 149H293.031V145H305.031V149ZM317.043 149H313.043V145H317.043V149ZM317.043 133H313.043V129H317.043V133ZM337.047 145H333.047V125H337.047V145ZM349.047 145V137H341.047V133H353.047V149H337.047V145H349.047ZM349.047 125H337.047V121H349.047V125ZM369.059 137H365.059V133H369.059V137ZM373.059 133H369.059V129H373.059V133ZM361.059 141V149H357.059V129H361.059V137H365.059V141H361.059ZM381.063 145H377.062V133H381.063V145ZM393.063 137H389.062V133H393.063V129H397.062V149H393.063V145H389.062V141H393.063V137ZM389.062 149H381.063V145H389.062V149ZM389.062 133H381.063V129H389.062V133ZM417.074 145V133H421.074V145H417.074ZM405.074 141H409.074V145H405.074V157H401.074V129H405.074V133H409.074V137H405.074V141ZM409.074 133V129H417.074V133H409.074ZM409.074 149V145H417.074V149H409.074ZM429.086 137V149H425.086V121H429.086V133H433.086V137H429.086ZM445.086 149H441.086V133H445.086V149ZM441.086 133H433.086V129H441.086V133ZM453.098 149H449.098V129H453.098V149ZM453.098 125H449.098V121H453.098V125ZM461.113 145H457.113V133H461.113V145ZM477.113 133H461.113V129H477.113V133ZM477.113 149H461.113V145H477.113V149ZM497.125 149H481.125V145H497.125V149ZM501.125 145H497.125V141H501.125V145ZM497.125 141H485.125V137H497.125V141ZM485.125 137H481.125V133H485.125V137ZM501.125 133H485.125V129H501.125V133Z" fill="black"/>
</svg>
