<svg width="226" height="95" viewBox="0 0 226 95" fill="none" xmlns="http://www.w3.org/2000/svg">
<path d="M26 0H212C219.732 0 226 6.26801 226 14V81C226 88.732 219.732 95 212 95H26V0Z" fill="white"/>
<path d="M101.824 43.08C101.824 43.3253 101.803 43.5387 101.76 43.72C101.803 43.8907 101.824 44.104 101.824 44.36C101.824 44.6053 101.803 44.8187 101.76 45H100.48C100.437 44.8187 100.416 44.6053 100.416 44.36C100.416 44.104 100.437 43.8907 100.48 43.72C100.437 43.5387 100.416 43.3253 100.416 43.08C100.416 42.824 100.437 42.6107 100.48 42.44H97.92C97.9627 42.6107 97.984 42.824 97.984 43.08C97.984 43.3253 97.9627 43.5387 97.92 43.72C97.9627 43.8907 97.984 44.104 97.984 44.36C97.984 44.6053 97.9627 44.8187 97.92 45H96.64C96.5973 44.8187 96.576 44.6053 96.576 44.36C96.576 44.104 96.5973 43.8907 96.64 43.72C96.5973 43.5387 96.576 43.3253 96.576 43.08C96.576 42.824 96.5973 42.6107 96.64 42.44H97.12C97.0773 42.2587 97.056 42.0453 97.056 41.8C97.056 41.544 97.0773 41.3307 97.12 41.16C97.0773 40.9787 97.056 40.7653 97.056 40.52C97.056 40.264 97.0773 40.0507 97.12 39.88H97.44C97.3973 39.6987 97.376 39.4853 97.376 39.24C97.376 38.984 97.3973 38.7707 97.44 38.6H97.92C97.8773 38.4187 97.856 38.2053 97.856 37.96C97.856 37.704 97.8773 37.4907 97.92 37.32H98.24C98.1973 37.1387 98.176 36.9253 98.176 36.68C98.176 36.424 98.1973 36.2107 98.24 36.04H100.16C100.203 36.2107 100.224 36.424 100.224 36.68C100.224 36.9253 100.203 37.1387 100.16 37.32H100.48C100.523 37.4907 100.544 37.704 100.544 37.96C100.544 38.2053 100.523 38.4187 100.48 38.6H100.96C101.003 38.7707 101.024 38.984 101.024 39.24C101.024 39.4853 101.003 39.6987 100.96 39.88H101.28C101.323 40.0507 101.344 40.264 101.344 40.52C101.344 40.7653 101.323 40.9787 101.28 41.16C101.323 41.3307 101.344 41.544 101.344 41.8C101.344 42.0453 101.323 42.2587 101.28 42.44H101.76C101.803 42.6107 101.824 42.824 101.824 43.08ZM100 41.16C99.9573 40.9787 99.936 40.7653 99.936 40.52C99.936 40.264 99.9573 40.0507 100 39.88H99.68C99.6373 39.6987 99.616 39.4853 99.616 39.24C99.616 38.984 99.6373 38.7707 99.68 38.6H98.72C98.7627 38.7707 98.784 38.984 98.784 39.24C98.784 39.4853 98.7627 39.6987 98.72 39.88H98.4C98.4427 40.0507 98.464 40.264 98.464 40.52C98.464 40.7653 98.4427 40.9787 98.4 41.16H100ZM107.526 43.72C107.569 43.8907 107.59 44.104 107.59 44.36C107.59 44.6053 107.569 44.8187 107.526 45H103.686C103.644 44.8187 103.622 44.6053 103.622 44.36C103.622 44.104 103.644 43.8907 103.686 43.72H104.966C104.924 43.5387 104.902 43.3253 104.902 43.08C104.902 42.824 104.924 42.6107 104.966 42.44C104.924 42.2587 104.902 42.0453 104.902 41.8C104.902 41.544 104.924 41.3307 104.966 41.16C104.924 40.9787 104.902 40.7653 104.902 40.52C104.902 40.264 104.924 40.0507 104.966 39.88C104.924 39.6987 104.902 39.4853 104.902 39.24C104.902 38.984 104.924 38.7707 104.966 38.6C104.924 38.4187 104.902 38.2053 104.902 37.96C104.902 37.704 104.924 37.4907 104.966 37.32H104.006C103.964 37.1387 103.942 36.9253 103.942 36.68C103.942 36.424 103.964 36.2107 104.006 36.04H106.246C106.289 36.2107 106.31 36.424 106.31 36.68C106.31 36.9253 106.289 37.1387 106.246 37.32C106.289 37.4907 106.31 37.704 106.31 37.96C106.31 38.2053 106.289 38.4187 106.246 38.6C106.289 38.7707 106.31 38.984 106.31 39.24C106.31 39.4853 106.289 39.6987 106.246 39.88C106.289 40.0507 106.31 40.264 106.31 40.52C106.31 40.7653 106.289 40.9787 106.246 41.16C106.289 41.3307 106.31 41.544 106.31 41.8C106.31 42.0453 106.289 42.2587 106.246 42.44C106.289 42.6107 106.31 42.824 106.31 43.08C106.31 43.3253 106.289 43.5387 106.246 43.72H107.526ZM113.933 43.72C113.975 43.8907 113.997 44.104 113.997 44.36C113.997 44.6053 113.975 44.8187 113.933 45H110.093C110.05 44.8187 110.029 44.6053 110.029 44.36C110.029 44.104 110.05 43.8907 110.093 43.72H111.373C111.33 43.5387 111.309 43.3253 111.309 43.08C111.309 42.824 111.33 42.6107 111.373 42.44C111.33 42.2587 111.309 42.0453 111.309 41.8C111.309 41.544 111.33 41.3307 111.373 41.16C111.33 40.9787 111.309 40.7653 111.309 40.52C111.309 40.264 111.33 40.0507 111.373 39.88C111.33 39.6987 111.309 39.4853 111.309 39.24C111.309 38.984 111.33 38.7707 111.373 38.6C111.33 38.4187 111.309 38.2053 111.309 37.96C111.309 37.704 111.33 37.4907 111.373 37.32H110.413C110.37 37.1387 110.349 36.9253 110.349 36.68C110.349 36.424 110.37 36.2107 110.413 36.04H112.653C112.695 36.2107 112.717 36.424 112.717 36.68C112.717 36.9253 112.695 37.1387 112.653 37.32C112.695 37.4907 112.717 37.704 112.717 37.96C112.717 38.2053 112.695 38.4187 112.653 38.6C112.695 38.7707 112.717 38.984 112.717 39.24C112.717 39.4853 112.695 39.6987 112.653 39.88C112.695 40.0507 112.717 40.264 112.717 40.52C112.717 40.7653 112.695 40.9787 112.653 41.16C112.695 41.3307 112.717 41.544 112.717 41.8C112.717 42.0453 112.695 42.2587 112.653 42.44C112.695 42.6107 112.717 42.824 112.717 43.08C112.717 43.3253 112.695 43.5387 112.653 43.72H113.933ZM127.385 43.72C127.428 43.8907 127.449 44.104 127.449 44.36C127.449 44.6053 127.428 44.8187 127.385 45H126.105C126.062 44.8187 126.041 44.6053 126.041 44.36C126.041 44.104 126.062 43.8907 126.105 43.72H125.465C125.422 43.5387 125.401 43.3253 125.401 43.08C125.401 42.824 125.422 42.6107 125.465 42.44H123.545C123.588 42.6107 123.609 42.824 123.609 43.08C123.609 43.3253 123.588 43.5387 123.545 43.72H125.465C125.508 43.8907 125.529 44.104 125.529 44.36C125.529 44.6053 125.508 44.8187 125.465 45H122.905C122.862 44.8187 122.841 44.6053 122.841 44.36C122.841 44.104 122.862 43.8907 122.905 43.72H122.265C122.222 43.5387 122.201 43.3253 122.201 43.08C122.201 42.824 122.222 42.6107 122.265 42.44H122.905C122.862 42.2587 122.841 42.0453 122.841 41.8C122.841 41.544 122.862 41.3307 122.905 41.16H125.465C125.422 40.9787 125.401 40.7653 125.401 40.52C125.401 40.264 125.422 40.0507 125.465 39.88H123.225C123.182 39.6987 123.161 39.4853 123.161 39.24C123.161 38.984 123.182 38.7707 123.225 38.6H126.105C126.148 38.7707 126.169 38.984 126.169 39.24C126.169 39.4853 126.148 39.6987 126.105 39.88H126.745C126.788 40.0507 126.809 40.264 126.809 40.52C126.809 40.7653 126.788 40.9787 126.745 41.16C126.788 41.3307 126.809 41.544 126.809 41.8C126.809 42.0453 126.788 42.2587 126.745 42.44C126.788 42.6107 126.809 42.824 126.809 43.08C126.809 43.3253 126.788 43.5387 126.745 43.72H127.385ZM129.951 42.44C129.994 42.6107 130.015 42.824 130.015 43.08C130.015 43.3253 129.994 43.5387 129.951 43.72H129.311C129.354 43.8907 129.375 44.104 129.375 44.36C129.375 44.6053 129.354 44.8187 129.311 45H128.671C128.629 44.8187 128.607 44.6053 128.607 44.36C128.607 44.104 128.629 43.8907 128.671 43.72C128.629 43.5387 128.607 43.3253 128.607 43.08C128.607 42.824 128.629 42.6107 128.671 42.44C128.629 42.2587 128.607 42.0453 128.607 41.8C128.607 41.544 128.629 41.3307 128.671 41.16C128.629 40.9787 128.607 40.7653 128.607 40.52C128.607 40.264 128.629 40.0507 128.671 39.88C128.629 39.6987 128.607 39.4853 128.607 39.24C128.607 38.984 128.629 38.7707 128.671 38.6C128.629 38.4187 128.607 38.2053 128.607 37.96C128.607 37.704 128.629 37.4907 128.671 37.32C128.629 37.1387 128.607 36.9253 128.607 36.68C128.607 36.424 128.629 36.2107 128.671 36.04H129.951C129.994 36.2107 130.015 36.424 130.015 36.68C130.015 36.9253 129.994 37.1387 129.951 37.32C129.994 37.4907 130.015 37.704 130.015 37.96C130.015 38.2053 129.994 38.4187 129.951 38.6C129.994 38.7707 130.015 38.984 130.015 39.24C130.015 39.4853 129.994 39.6987 129.951 39.88H130.591C130.634 40.0507 130.655 40.264 130.655 40.52C130.655 40.7653 130.634 40.9787 130.591 41.16H129.951C129.994 41.3307 130.015 41.544 130.015 41.8C130.015 42.0453 129.994 42.2587 129.951 42.44ZM133.855 41.8C133.855 42.0453 133.834 42.2587 133.791 42.44H133.151C133.194 42.6107 133.215 42.824 133.215 43.08C133.215 43.3253 133.194 43.5387 133.151 43.72H131.871C131.829 43.5387 131.807 43.3253 131.807 43.08C131.807 42.824 131.829 42.6107 131.871 42.44H132.511C132.469 42.2587 132.447 42.0453 132.447 41.8C132.447 41.544 132.469 41.3307 132.511 41.16H131.871C131.829 40.9787 131.807 40.7653 131.807 40.52C131.807 40.264 131.829 40.0507 131.871 39.88H130.591C130.549 39.6987 130.527 39.4853 130.527 39.24C130.527 38.984 130.549 38.7707 130.591 38.6H132.511C132.554 38.7707 132.575 38.984 132.575 39.24C132.575 39.4853 132.554 39.6987 132.511 39.88H133.151C133.194 40.0507 133.215 40.264 133.215 40.52C133.215 40.7653 133.194 40.9787 133.151 41.16H133.791C133.834 41.3307 133.855 41.544 133.855 41.8ZM129.887 44.36C129.887 44.104 129.909 43.8907 129.951 43.72H131.871C131.914 43.8907 131.935 44.104 131.935 44.36C131.935 44.6053 131.914 44.8187 131.871 45H129.951C129.909 44.8187 129.887 44.6053 129.887 44.36ZM140.262 41.8C140.262 42.0453 140.24 42.2587 140.198 42.44H139.718C139.76 42.6107 139.782 42.824 139.782 43.08C139.782 43.3253 139.76 43.5387 139.718 43.72H138.918C138.96 43.8907 138.982 44.104 138.982 44.36C138.982 44.6053 138.96 44.8187 138.918 45H136.358C136.315 44.8187 136.294 44.6053 136.294 44.36C136.294 44.104 136.315 43.8907 136.358 43.72H135.558C135.515 43.5387 135.493 43.3253 135.493 43.08C135.493 42.824 135.515 42.6107 135.558 42.44H135.078C135.035 42.2587 135.014 42.0453 135.014 41.8C135.014 41.544 135.035 41.3307 135.078 41.16H135.558C135.515 40.9787 135.493 40.7653 135.493 40.52C135.493 40.264 135.515 40.0507 135.558 39.88H136.358C136.315 39.6987 136.294 39.4853 136.294 39.24C136.294 38.984 136.315 38.7707 136.358 38.6H138.918C138.96 38.7707 138.982 38.984 138.982 39.24C138.982 39.4853 138.96 39.6987 138.918 39.88H139.718C139.76 40.0507 139.782 40.264 139.782 40.52C139.782 40.7653 139.76 40.9787 139.718 41.16H140.198C140.24 41.3307 140.262 41.544 140.262 41.8ZM138.918 42.44C138.875 42.2587 138.854 42.0453 138.854 41.8C138.854 41.544 138.875 41.3307 138.918 41.16H138.438C138.395 40.9787 138.374 40.7653 138.374 40.52C138.374 40.264 138.395 40.0507 138.438 39.88H136.838C136.88 40.0507 136.902 40.264 136.902 40.52C136.902 40.7653 136.88 40.9787 136.838 41.16H136.358C136.4 41.3307 136.422 41.544 136.422 41.8C136.422 42.0453 136.4 42.2587 136.358 42.44H136.838C136.88 42.6107 136.902 42.824 136.902 43.08C136.902 43.3253 136.88 43.5387 136.838 43.72H138.438C138.395 43.5387 138.374 43.3253 138.374 43.08C138.374 42.824 138.395 42.6107 138.438 42.44H138.918ZM143.308 43.08C143.308 43.3253 143.286 43.5387 143.244 43.72H144.844C144.886 43.8907 144.908 44.104 144.908 44.36C144.908 44.6053 144.886 44.8187 144.844 45H142.284C142.241 44.8187 142.22 44.6053 142.22 44.36C142.22 44.104 142.241 43.8907 142.284 43.72H141.484C141.441 43.5387 141.42 43.3253 141.42 43.08C141.42 42.824 141.441 42.6107 141.484 42.44C141.441 42.2587 141.42 42.0453 141.42 41.8C141.42 41.544 141.441 41.3307 141.484 41.16C141.441 40.9787 141.42 40.7653 141.42 40.52C141.42 40.264 141.441 40.0507 141.484 39.88C141.441 39.6987 141.42 39.4853 141.42 39.24C141.42 38.984 141.441 38.7707 141.484 38.6H142.764C142.806 38.7707 142.828 38.984 142.828 39.24C142.828 39.4853 142.806 39.6987 142.764 39.88C142.806 40.0507 142.828 40.264 142.828 40.52C142.828 40.7653 142.806 40.9787 142.764 41.16C142.806 41.3307 142.828 41.544 142.828 41.8C142.828 42.0453 142.806 42.2587 142.764 42.44H143.244C143.286 42.6107 143.308 42.824 143.308 43.08ZM146.604 39.88C146.646 40.0507 146.668 40.264 146.668 40.52C146.668 40.7653 146.646 40.9787 146.604 41.16C146.646 41.3307 146.668 41.544 146.668 41.8C146.668 42.0453 146.646 42.2587 146.604 42.44C146.646 42.6107 146.668 42.824 146.668 43.08C146.668 43.3253 146.646 43.5387 146.604 43.72C146.646 43.8907 146.668 44.104 146.668 44.36C146.668 44.6053 146.646 44.8187 146.604 45H145.324C145.281 44.8187 145.26 44.6053 145.26 44.36C145.26 44.104 145.281 43.8907 145.324 43.72H144.844C144.801 43.5387 144.78 43.3253 144.78 43.08C144.78 42.824 144.801 42.6107 144.844 42.44H145.324C145.281 42.2587 145.26 42.0453 145.26 41.8C145.26 41.544 145.281 41.3307 145.324 41.16C145.281 40.9787 145.26 40.7653 145.26 40.52C145.26 40.264 145.281 40.0507 145.324 39.88C145.281 39.6987 145.26 39.4853 145.26 39.24C145.26 38.984 145.281 38.7707 145.324 38.6H146.604C146.646 38.7707 146.668 38.984 146.668 39.24C146.668 39.4853 146.646 39.6987 146.604 39.88ZM152.37 43.72C152.413 43.8907 152.434 44.104 152.434 44.36C152.434 44.6053 152.413 44.8187 152.37 45H149.81C149.767 44.8187 149.746 44.6053 149.746 44.36C149.746 44.104 149.767 43.8907 149.81 43.72H149.17C149.127 43.5387 149.106 43.3253 149.106 43.08C149.106 42.824 149.127 42.6107 149.17 42.44C149.127 42.2587 149.106 42.0453 149.106 41.8C149.106 41.544 149.127 41.3307 149.17 41.16C149.127 40.9787 149.106 40.7653 149.106 40.52C149.106 40.264 149.127 40.0507 149.17 39.88H147.89C147.847 39.6987 147.826 39.4853 147.826 39.24C147.826 38.984 147.847 38.7707 147.89 38.6H149.17C149.127 38.4187 149.106 38.2053 149.106 37.96C149.106 37.704 149.127 37.4907 149.17 37.32C149.127 37.1387 149.106 36.9253 149.106 36.68C149.106 36.424 149.127 36.2107 149.17 36.04H150.45C150.493 36.2107 150.514 36.424 150.514 36.68C150.514 36.9253 150.493 37.1387 150.45 37.32C150.493 37.4907 150.514 37.704 150.514 37.96C150.514 38.2053 150.493 38.4187 150.45 38.6H152.37C152.413 38.7707 152.434 38.984 152.434 39.24C152.434 39.4853 152.413 39.6987 152.37 39.88H150.45C150.493 40.0507 150.514 40.264 150.514 40.52C150.514 40.7653 150.493 40.9787 150.45 41.16C150.493 41.3307 150.514 41.544 150.514 41.8C150.514 42.0453 150.493 42.2587 150.45 42.44C150.493 42.6107 150.514 42.824 150.514 43.08C150.514 43.3253 150.493 43.5387 150.45 43.72H152.37ZM157.72 37.96C157.72 38.2053 157.699 38.4187 157.656 38.6C157.699 38.7707 157.72 38.984 157.72 39.24C157.72 39.4853 157.699 39.6987 157.656 39.88H156.056C156.014 39.6987 155.992 39.4853 155.992 39.24C155.992 38.984 156.014 38.7707 156.056 38.6C156.014 38.4187 155.992 38.2053 155.992 37.96C155.992 37.704 156.014 37.4907 156.056 37.32H157.656C157.699 37.4907 157.72 37.704 157.72 37.96ZM157.656 42.44C157.699 42.6107 157.72 42.824 157.72 43.08C157.72 43.3253 157.699 43.5387 157.656 43.72C157.699 43.8907 157.72 44.104 157.72 44.36C157.72 44.6053 157.699 44.8187 157.656 45H156.056C156.014 44.8187 155.992 44.6053 155.992 44.36C155.992 44.104 156.014 43.8907 156.056 43.72C156.014 43.5387 155.992 43.3253 155.992 43.08C155.992 42.824 156.014 42.6107 156.056 42.44H157.656ZM101.824 52.68C101.824 52.9253 101.803 53.1387 101.76 53.32H99.84C99.8827 53.4907 99.904 53.704 99.904 53.96C99.904 54.2053 99.8827 54.4187 99.84 54.6C99.8827 54.7707 99.904 54.984 99.904 55.24C99.904 55.4853 99.8827 55.6987 99.84 55.88C99.8827 56.0507 99.904 56.264 99.904 56.52C99.904 56.7653 99.8827 56.9787 99.84 57.16C99.8827 57.3307 99.904 57.544 99.904 57.8C99.904 58.0453 99.8827 58.2587 99.84 58.44C99.8827 58.6107 99.904 58.824 99.904 59.08C99.904 59.3253 99.8827 59.5387 99.84 59.72C99.8827 59.8907 99.904 60.104 99.904 60.36C99.904 60.6053 99.8827 60.8187 99.84 61H98.56C98.5173 60.8187 98.496 60.6053 98.496 60.36C98.496 60.104 98.5173 59.8907 98.56 59.72C98.5173 59.5387 98.496 59.3253 98.496 59.08C98.496 58.824 98.5173 58.6107 98.56 58.44C98.5173 58.2587 98.496 58.0453 98.496 57.8C98.496 57.544 98.5173 57.3307 98.56 57.16C98.5173 56.9787 98.496 56.7653 98.496 56.52C98.496 56.264 98.5173 56.0507 98.56 55.88C98.5173 55.6987 98.496 55.4853 98.496 55.24C98.496 54.984 98.5173 54.7707 98.56 54.6C98.5173 54.4187 98.496 54.2053 98.496 53.96C98.496 53.704 98.5173 53.4907 98.56 53.32H96.64C96.5973 53.1387 96.576 52.9253 96.576 52.68C96.576 52.424 96.5973 52.2107 96.64 52.04H101.76C101.803 52.2107 101.824 52.424 101.824 52.68ZM104.39 55.24C104.39 55.4853 104.369 55.6987 104.326 55.88H104.806C104.849 56.0507 104.87 56.264 104.87 56.52C104.87 56.7653 104.849 56.9787 104.806 57.16H104.326C104.369 57.3307 104.39 57.544 104.39 57.8C104.39 58.0453 104.369 58.2587 104.326 58.44C104.369 58.6107 104.39 58.824 104.39 59.08C104.39 59.3253 104.369 59.5387 104.326 59.72C104.369 59.8907 104.39 60.104 104.39 60.36C104.39 60.6053 104.369 60.8187 104.326 61H103.046C103.004 60.8187 102.982 60.6053 102.982 60.36C102.982 60.104 103.004 59.8907 103.046 59.72C103.004 59.5387 102.982 59.3253 102.982 59.08C102.982 58.824 103.004 58.6107 103.046 58.44C103.004 58.2587 102.982 58.0453 102.982 57.8C102.982 57.544 103.004 57.3307 103.046 57.16C103.004 56.9787 102.982 56.7653 102.982 56.52C102.982 56.264 103.004 56.0507 103.046 55.88C103.004 55.6987 102.982 55.4853 102.982 55.24C102.982 54.984 103.004 54.7707 103.046 54.6C103.004 54.4187 102.982 54.2053 102.982 53.96C102.982 53.704 103.004 53.4907 103.046 53.32C103.004 53.1387 102.982 52.9253 102.982 52.68C102.982 52.424 103.004 52.2107 103.046 52.04H104.326C104.369 52.2107 104.39 52.424 104.39 52.68C104.39 52.9253 104.369 53.1387 104.326 53.32C104.369 53.4907 104.39 53.704 104.39 53.96C104.39 54.2053 104.369 54.4187 104.326 54.6C104.369 54.7707 104.39 54.984 104.39 55.24ZM108.166 57.16C108.209 57.3307 108.23 57.544 108.23 57.8C108.23 58.0453 108.209 58.2587 108.166 58.44C108.209 58.6107 108.23 58.824 108.23 59.08C108.23 59.3253 108.209 59.5387 108.166 59.72C108.209 59.8907 108.23 60.104 108.23 60.36C108.23 60.6053 108.209 60.8187 108.166 61H106.886C106.844 60.8187 106.822 60.6053 106.822 60.36C106.822 60.104 106.844 59.8907 106.886 59.72C106.844 59.5387 106.822 59.3253 106.822 59.08C106.822 58.824 106.844 58.6107 106.886 58.44C106.844 58.2587 106.822 58.0453 106.822 57.8C106.822 57.544 106.844 57.3307 106.886 57.16C106.844 56.9787 106.822 56.7653 106.822 56.52C106.822 56.264 106.844 56.0507 106.886 55.88H104.806C104.764 55.6987 104.742 55.4853 104.742 55.24C104.742 54.984 104.764 54.7707 104.806 54.6H107.366C107.409 54.7707 107.43 54.984 107.43 55.24C107.43 55.4853 107.409 55.6987 107.366 55.88H108.166C108.209 56.0507 108.23 56.264 108.23 56.52C108.23 56.7653 108.209 56.9787 108.166 57.16ZM114.637 56.52C114.637 56.7653 114.615 56.9787 114.573 57.16C114.615 57.3307 114.637 57.544 114.637 57.8C114.637 58.0453 114.615 58.2587 114.573 58.44H111.213C111.255 58.6107 111.277 58.824 111.277 59.08C111.277 59.3253 111.255 59.5387 111.213 59.72H113.933C113.975 59.8907 113.997 60.104 113.997 60.36C113.997 60.6053 113.975 60.8187 113.933 61H110.733C110.69 60.8187 110.669 60.6053 110.669 60.36C110.669 60.104 110.69 59.8907 110.733 59.72H109.933C109.89 59.5387 109.868 59.3253 109.868 59.08C109.868 58.824 109.89 58.6107 109.933 58.44H109.453C109.41 58.2587 109.389 58.0453 109.389 57.8C109.389 57.544 109.41 57.3307 109.453 57.16H109.933C109.89 56.9787 109.868 56.7653 109.868 56.52C109.868 56.264 109.89 56.0507 109.933 55.88H110.733C110.69 55.6987 110.669 55.4853 110.669 55.24C110.669 54.984 110.69 54.7707 110.733 54.6H113.933C113.975 54.7707 113.997 54.984 113.997 55.24C113.997 55.4853 113.975 55.6987 113.933 55.88H114.573C114.615 56.0507 114.637 56.264 114.637 56.52ZM113.293 57.16C113.25 56.9787 113.229 56.7653 113.229 56.52C113.229 56.264 113.25 56.0507 113.293 55.88H111.213C111.255 56.0507 111.277 56.264 111.277 56.52C111.277 56.7653 111.255 56.9787 111.213 57.16H113.293ZM127.449 57.8C127.449 58.0453 127.428 58.2587 127.385 58.44H126.905C126.948 58.6107 126.969 58.824 126.969 59.08C126.969 59.3253 126.948 59.5387 126.905 59.72H126.105C126.148 59.8907 126.169 60.104 126.169 60.36C126.169 60.6053 126.148 60.8187 126.105 61H123.545C123.502 60.8187 123.481 60.6053 123.481 60.36C123.481 60.104 123.502 59.8907 123.545 59.72H122.745C122.702 59.5387 122.681 59.3253 122.681 59.08C122.681 58.824 122.702 58.6107 122.745 58.44H122.265C122.222 58.2587 122.201 58.0453 122.201 57.8C122.201 57.544 122.222 57.3307 122.265 57.16H122.745C122.702 56.9787 122.681 56.7653 122.681 56.52C122.681 56.264 122.702 56.0507 122.745 55.88H123.545C123.502 55.6987 123.481 55.4853 123.481 55.24C123.481 54.984 123.502 54.7707 123.545 54.6H126.105C126.148 54.7707 126.169 54.984 126.169 55.24C126.169 55.4853 126.148 55.6987 126.105 55.88H126.905C126.948 56.0507 126.969 56.264 126.969 56.52C126.969 56.7653 126.948 56.9787 126.905 57.16H127.385C127.428 57.3307 127.449 57.544 127.449 57.8ZM126.105 58.44C126.062 58.2587 126.041 58.0453 126.041 57.8C126.041 57.544 126.062 57.3307 126.105 57.16H125.625C125.582 56.9787 125.561 56.7653 125.561 56.52C125.561 56.264 125.582 56.0507 125.625 55.88H124.025C124.068 56.0507 124.089 56.264 124.089 56.52C124.089 56.7653 124.068 56.9787 124.025 57.16H123.545C123.588 57.3307 123.609 57.544 123.609 57.8C123.609 58.0453 123.588 58.2587 123.545 58.44H124.025C124.068 58.6107 124.089 58.824 124.089 59.08C124.089 59.3253 124.068 59.5387 124.025 59.72H125.625C125.582 59.5387 125.561 59.3253 125.561 59.08C125.561 58.824 125.582 58.6107 125.625 58.44H126.105ZM133.791 58.44C133.834 58.6107 133.855 58.824 133.855 59.08C133.855 59.3253 133.834 59.5387 133.791 59.72H133.151C133.194 59.8907 133.215 60.104 133.215 60.36C133.215 60.6053 133.194 60.8187 133.151 61H129.951C129.909 60.8187 129.887 60.6053 129.887 60.36C129.887 60.104 129.909 59.8907 129.951 59.72H129.311C129.269 59.5387 129.247 59.3253 129.247 59.08C129.247 58.824 129.269 58.6107 129.311 58.44H128.671C128.629 58.2587 128.607 58.0453 128.607 57.8C128.607 57.544 128.629 57.3307 128.671 57.16H129.311C129.269 56.9787 129.247 56.7653 129.247 56.52C129.247 56.264 129.269 56.0507 129.311 55.88H129.951C129.909 55.6987 129.887 55.4853 129.887 55.24C129.887 54.984 129.909 54.7707 129.951 54.6H133.151C133.194 54.7707 133.215 54.984 133.215 55.24C133.215 55.4853 133.194 55.6987 133.151 55.88H133.791C133.834 56.0507 133.855 56.264 133.855 56.52C133.855 56.7653 133.834 56.9787 133.791 57.16H132.511C132.469 56.9787 132.447 56.7653 132.447 56.52C132.447 56.264 132.469 56.0507 132.511 55.88H130.591C130.634 56.0507 130.655 56.264 130.655 56.52C130.655 56.7653 130.634 56.9787 130.591 57.16H129.951C129.994 57.3307 130.015 57.544 130.015 57.8C130.015 58.0453 129.994 58.2587 129.951 58.44H130.591C130.634 58.6107 130.655 58.824 130.655 59.08C130.655 59.3253 130.634 59.5387 130.591 59.72H132.511C132.469 59.5387 132.447 59.3253 132.447 59.08C132.447 58.824 132.469 58.6107 132.511 58.44H133.791ZM140.262 56.52C140.262 56.7653 140.24 56.9787 140.198 57.16C140.24 57.3307 140.262 57.544 140.262 57.8C140.262 58.0453 140.24 58.2587 140.198 58.44H136.838C136.88 58.6107 136.902 58.824 136.902 59.08C136.902 59.3253 136.88 59.5387 136.838 59.72H139.558C139.6 59.8907 139.622 60.104 139.622 60.36C139.622 60.6053 139.6 60.8187 139.558 61H136.358C136.315 60.8187 136.294 60.6053 136.294 60.36C136.294 60.104 136.315 59.8907 136.358 59.72H135.558C135.515 59.5387 135.493 59.3253 135.493 59.08C135.493 58.824 135.515 58.6107 135.558 58.44H135.078C135.035 58.2587 135.014 58.0453 135.014 57.8C135.014 57.544 135.035 57.3307 135.078 57.16H135.558C135.515 56.9787 135.493 56.7653 135.493 56.52C135.493 56.264 135.515 56.0507 135.558 55.88H136.358C136.315 55.6987 136.294 55.4853 136.294 55.24C136.294 54.984 136.315 54.7707 136.358 54.6H139.558C139.6 54.7707 139.622 54.984 139.622 55.24C139.622 55.4853 139.6 55.6987 139.558 55.88H140.198C140.24 56.0507 140.262 56.264 140.262 56.52ZM138.918 57.16C138.875 56.9787 138.854 56.7653 138.854 56.52C138.854 56.264 138.875 56.0507 138.918 55.88H136.838C136.88 56.0507 136.902 56.264 136.902 56.52C136.902 56.7653 136.88 56.9787 136.838 57.16H138.918ZM146.604 59.72C146.646 59.8907 146.668 60.104 146.668 60.36C146.668 60.6053 146.646 60.8187 146.604 61H145.324C145.281 60.8187 145.26 60.6053 145.26 60.36C145.26 60.104 145.281 59.8907 145.324 59.72H144.684C144.641 59.5387 144.62 59.3253 144.62 59.08C144.62 58.824 144.641 58.6107 144.684 58.44H142.764C142.806 58.6107 142.828 58.824 142.828 59.08C142.828 59.3253 142.806 59.5387 142.764 59.72H144.684C144.726 59.8907 144.748 60.104 144.748 60.36C144.748 60.6053 144.726 60.8187 144.684 61H142.124C142.081 60.8187 142.06 60.6053 142.06 60.36C142.06 60.104 142.081 59.8907 142.124 59.72H141.484C141.441 59.5387 141.42 59.3253 141.42 59.08C141.42 58.824 141.441 58.6107 141.484 58.44H142.124C142.081 58.2587 142.06 58.0453 142.06 57.8C142.06 57.544 142.081 57.3307 142.124 57.16H144.684C144.641 56.9787 144.62 56.7653 144.62 56.52C144.62 56.264 144.641 56.0507 144.684 55.88H142.444C142.401 55.6987 142.38 55.4853 142.38 55.24C142.38 54.984 142.401 54.7707 142.444 54.6H145.324C145.366 54.7707 145.388 54.984 145.388 55.24C145.388 55.4853 145.366 55.6987 145.324 55.88H145.964C146.006 56.0507 146.028 56.264 146.028 56.52C146.028 56.7653 146.006 56.9787 145.964 57.16C146.006 57.3307 146.028 57.544 146.028 57.8C146.028 58.0453 146.006 58.2587 145.964 58.44C146.006 58.6107 146.028 58.824 146.028 59.08C146.028 59.3253 146.006 59.5387 145.964 59.72H146.604ZM149.074 55.24C149.074 55.4853 149.053 55.6987 149.01 55.88H149.65C149.693 56.0507 149.714 56.264 149.714 56.52C149.714 56.7653 149.693 56.9787 149.65 57.16H149.17C149.213 57.3307 149.234 57.544 149.234 57.8C149.234 58.0453 149.213 58.2587 149.17 58.44C149.213 58.6107 149.234 58.824 149.234 59.08C149.234 59.3253 149.213 59.5387 149.17 59.72C149.213 59.8907 149.234 60.104 149.234 60.36C149.234 60.6053 149.213 60.8187 149.17 61H147.89C147.847 60.8187 147.826 60.6053 147.826 60.36C147.826 60.104 147.847 59.8907 147.89 59.72C147.847 59.5387 147.826 59.3253 147.826 59.08C147.826 58.824 147.847 58.6107 147.89 58.44C147.847 58.2587 147.826 58.0453 147.826 57.8C147.826 57.544 147.847 57.3307 147.89 57.16C147.847 56.9787 147.826 56.7653 147.826 56.52C147.826 56.264 147.847 56.0507 147.89 55.88C147.847 55.6987 147.826 55.4853 147.826 55.24C147.826 54.984 147.847 54.7707 147.89 54.6H149.01C149.053 54.7707 149.074 54.984 149.074 55.24ZM153.01 57.16C153.053 57.3307 153.074 57.544 153.074 57.8C153.074 58.0453 153.053 58.2587 153.01 58.44C153.053 58.6107 153.074 58.824 153.074 59.08C153.074 59.3253 153.053 59.5387 153.01 59.72C153.053 59.8907 153.074 60.104 153.074 60.36C153.074 60.6053 153.053 60.8187 153.01 61H151.73C151.687 60.8187 151.666 60.6053 151.666 60.36C151.666 60.104 151.687 59.8907 151.73 59.72C151.687 59.5387 151.666 59.3253 151.666 59.08C151.666 58.824 151.687 58.6107 151.73 58.44C151.687 58.2587 151.666 58.0453 151.666 57.8C151.666 57.544 151.687 57.3307 151.73 57.16C151.687 56.9787 151.666 56.7653 151.666 56.52C151.666 56.264 151.687 56.0507 151.73 55.88H149.65C149.607 55.6987 149.586 55.4853 149.586 55.24C149.586 54.984 149.607 54.7707 149.65 54.6H152.21C152.253 54.7707 152.274 54.984 152.274 55.24C152.274 55.4853 152.253 55.6987 152.21 55.88H153.01C153.053 56.0507 153.074 56.264 153.074 56.52C153.074 56.7653 153.053 56.9787 153.01 57.16Z" fill="black"/>
<path d="M0 14C0 6.26801 6.26801 0 14 0H80V95H14C6.26801 95 0 88.732 0 81V14Z" fill="#FFEBA2"/>
</svg>
