<svg width="668" height="336" viewBox="0 0 668 336" fill="none" xmlns="http://www.w3.org/2000/svg">
<mask id="path-1-inside-1_70_4" fill="white">
<path d="M0 0H14V130H0V0Z"/>
</mask>
<path d="M0 0V-5H-5V0H0ZM14 0H19V-5H14V0ZM0 5H14V-5H0V5ZM9 0V130H19V0H9ZM5 130V0H-5V130H5Z" fill="black" mask="url(#path-1-inside-1_70_4)"/>
<mask id="path-3-inside-2_70_4" fill="white">
<path d="M654 0H668V130H654V0Z"/>
</mask>
<path d="M654 0V-5H649V0H654ZM668 0H673V-5H668V0ZM654 5H668V-5H654V5ZM663 0V130H673V0H663ZM659 130V0H649V130H659Z" fill="black" mask="url(#path-3-inside-2_70_4)"/>
<rect x="2.5" y="132.5" width="663" height="201" stroke="black" stroke-width="5"/>
<rect x="11.5" y="146.5" width="644" height="173" stroke="black" stroke-width="5"/>
<path d="M89.5556 217.889H86V200.111H89.5556V217.889ZM100.222 210.778H96.6667V203.667H100.222V210.778ZM110.889 217.889H107.333V200.111H110.889V217.889ZM93.1111 225H89.5556V217.889H93.1111V225ZM107.333 225H103.778V217.889H107.333V225ZM96.6667 217.889H93.1111V210.778H96.6667V217.889ZM103.778 217.889H100.222V210.778H103.778V217.889ZM128.66 210.778H117.993V207.222H128.66V210.778ZM117.993 217.889V221.444H114.438V210.778H117.993V214.333H128.66V210.778H132.215V217.889H117.993ZM132.215 225H117.993V221.444H132.215V225ZM139.337 225H135.781V200.111H139.337V225ZM146.462 221.444H142.906V210.778H146.462V221.444ZM160.684 210.778H146.462V207.222H160.684V210.778ZM160.684 225H146.462V221.444H160.684V225ZM167.806 221.444H164.25V210.778H167.806V221.444ZM178.472 210.778H167.806V207.222H178.472V210.778ZM182.028 221.444H178.472V210.778H182.028V221.444ZM178.472 225H167.806V221.444H178.472V225ZM199.816 225H196.26V210.778H199.816V225ZM196.26 207.222V210.778H189.149V225H185.594V207.222H196.26ZM206.927 210.778H199.816V207.222H206.927V210.778ZM210.483 225H206.927V210.778H210.483V225ZM228.253 210.778H217.587V207.222H228.253V210.778ZM217.587 217.889V221.444H214.031V210.778H217.587V214.333H228.253V210.778H231.809V217.889H217.587ZM231.809 225H217.587V221.444H231.809V225ZM253.142 207.222H256.698V210.778H253.142V221.444H256.698V225H249.587V210.778H246.031V207.222H249.587V200.111H253.142V207.222ZM263.806 221.444H260.25V210.778H263.806V221.444ZM274.472 210.778H263.806V207.222H274.472V210.778ZM278.028 221.444H274.472V210.778H278.028V221.444ZM274.472 225H263.806V221.444H274.472V225ZM285.149 225H281.594V221.444H285.149V225ZM285.149 210.778H281.594V207.222H285.149V210.778ZM89.5556 261.444H86V240.111H89.5556V261.444ZM100.222 265H89.5556V261.444H100.222V265ZM103.778 261.444H100.222V240.111H103.778V261.444ZM110.899 254.333V265H107.344V247.222H110.899V250.778H114.455V254.333H110.899ZM125.122 265H121.566V250.778H125.122V265ZM121.566 250.778H114.455V247.222H121.566V250.778ZM132.243 261.444H128.688V250.778H132.243V261.444ZM142.91 254.333H139.354V250.778H142.91V240.111H146.465V265H142.91V261.444H139.354V257.889H142.91V254.333ZM139.354 265H132.243V261.444H139.354V265ZM139.354 250.778H132.243V247.222H139.354V250.778ZM164.253 250.778H153.587V247.222H164.253V250.778ZM153.587 257.889V261.444H150.031V250.778H153.587V254.333H164.253V250.778H167.809V257.889H153.587ZM167.809 265H153.587V261.444H167.809V265ZM182.042 254.333H178.486V250.778H182.042V254.333ZM185.597 250.778H182.042V247.222H185.597V250.778ZM174.931 257.889V265H171.375V247.222H174.931V254.333H178.486V257.889H174.931ZM206.924 247.222H210.479V250.778H206.924V261.444H210.479V265H203.368V250.778H199.812V247.222H203.368V240.111H206.924V247.222ZM217.587 254.333V265H214.031V240.111H217.587V250.778H221.142V254.333H217.587ZM231.809 265H228.253V250.778H231.809V265ZM228.253 250.778H221.142V247.222H228.253V250.778ZM249.597 250.778H238.931V247.222H249.597V250.778ZM238.931 257.889V261.444H235.375V250.778H238.931V254.333H249.597V250.778H253.153V257.889H238.931ZM253.153 265H238.931V261.444H253.153V265ZM270.931 261.444H267.375V247.222H270.931V261.444ZM274.486 265H270.931V261.444H274.486V265ZM281.597 257.889H278.042V250.778H281.597V257.889ZM288.708 265H285.153V261.444H288.708V265ZM292.264 261.444H288.708V247.222H292.264V261.444ZM278.042 261.444H274.486V257.889H278.042V261.444ZM285.153 261.444H281.597V257.889H285.153V261.444ZM299.368 261.444H295.812V250.778H299.368V261.444ZM310.035 254.333H306.479V250.778H310.035V247.222H313.59V265H310.035V261.444H306.479V257.889H310.035V254.333ZM306.479 265H299.368V261.444H306.479V265ZM306.479 250.778H299.368V247.222H306.479V250.778ZM327.823 265H324.267V261.444H327.823V265ZM324.267 261.444H320.712V257.889H324.267V261.444ZM331.378 261.444H327.823V257.889H331.378V261.444ZM320.712 257.889H317.156V247.222H320.712V257.889ZM334.934 257.889H331.378V247.222H334.934V257.889ZM352.722 250.778H342.056V247.222H352.722V250.778ZM342.056 257.889V261.444H338.5V250.778H342.056V254.333H352.722V250.778H356.278V257.889H342.056ZM356.278 265H342.056V261.444H356.278V265ZM374.066 265H359.844V261.444H374.066V265ZM377.622 261.444H374.066V257.889H377.622V261.444ZM374.066 257.889H363.399V254.333H374.066V257.889ZM363.399 254.333H359.844V250.778H363.399V254.333ZM377.622 250.778H363.399V247.222H377.622V250.778ZM406.066 265H391.844V261.444H406.066V265ZM409.622 261.444H406.066V257.889H409.622V261.444ZM406.066 257.889H395.399V254.333H406.066V257.889ZM395.399 254.333H391.844V250.778H395.399V254.333ZM409.622 250.778H395.399V247.222H409.622V250.778ZM420.299 247.222H423.854V250.778H420.299V261.444H423.854V265H416.743V250.778H413.188V247.222H416.743V240.111H420.299V247.222ZM445.184 254.333H441.628V247.222H445.184V254.333ZM430.962 254.333H427.406V247.222H430.962V254.333ZM438.073 268.556H434.517V261.444H438.073V268.556ZM434.517 272.111H427.406V268.556H434.517V272.111ZM434.517 261.444H430.962V254.333H434.517V261.444ZM441.628 261.444H438.073V254.333H441.628V261.444ZM452.306 265H448.75V240.111H452.306V265ZM470.097 250.778H459.431V247.222H470.097V250.778ZM459.431 257.889V261.444H455.875V250.778H459.431V254.333H470.097V250.778H473.653V257.889H459.431ZM473.653 265H459.431V261.444H473.653V265ZM491.431 261.444H487.875V250.778H491.431V261.444ZM502.097 261.444H498.542V257.889H502.097V254.333H498.542V250.778H502.097V247.222H505.653V268.556H502.097V261.444ZM498.542 250.778H491.431V247.222H498.542V250.778ZM498.542 265H491.431V261.444H498.542V265ZM502.097 272.111H491.431V268.556H502.097V272.111ZM512.774 261.444H509.219V247.222H512.774V261.444ZM526.997 261.444H523.441V247.222H526.997V261.444ZM523.441 265H512.774V261.444H523.441V265ZM534.118 265H530.562V247.222H534.118V265ZM534.118 243.667H530.562V240.111H534.118V243.667ZM541.243 261.444H537.688V250.778H541.243V261.444ZM551.91 254.333H548.354V250.778H551.91V240.111H555.465V265H551.91V261.444H548.354V257.889H551.91V254.333ZM548.354 265H541.243V261.444H548.354V265ZM548.354 250.778H541.243V247.222H548.354V250.778ZM573.253 250.778H562.587V247.222H573.253V250.778ZM562.587 257.889V261.444H559.031V250.778H562.587V254.333H573.253V250.778H576.809V257.889H562.587ZM576.809 265H562.587V261.444H576.809V265Z" fill="black"/>
</svg>
